<svg xmlns="http://www.w3.org/2000/svg" viewBox="0 0 987.83 689.61"><defs><style>.cls-1{fill:none;stroke:#282828;stroke-miterlimit:10;}.cls-2{fill:#f47400;}.cls-3{fill:#606060;}</style></defs><g id="Capa_2" data-name="Capa 2"><g id="Capa_1-2" data-name="Capa 1"><path class="cls-1" d="M130.28,83.69h33.49V203.42h55.94v30.72H130.28Z"/><path class="cls-1" d="M342,234.14H309.13v-14c-6.15,9.32-16.95,16.1-32.63,16.1-22.25,0-41.11-13.77-41.11-47.46V124h32.84v59.13c0,13.77,7,23.94,20.56,23.94,13.35,0,20.34-10.17,20.34-23.94V124H342Z"/><path class="cls-1" d="M361.89,83.69h32.85V112.3H361.89Zm0,40.26h32.85V234.14H361.89Z"/><path class="cls-1" d="M408.3,204.9l26.06-7c1.7,5.3,5.51,12.71,15.9,12.71,5.93,0,11.44-3,11.44-9.11,0-3.6-2.12-7-9.33-9.32l-14.83-5.51c-18.22-6.57-26.06-18.44-26.06-32.21,0-20.56,18.43-32.64,40-32.64,20.76,0,35.81,11.66,39.62,29.46l-25.64,6.36c-2.75-8.48-8.26-10.39-12.71-10.39-6.36,0-9.54,3.82-9.54,7.63,0,3.6,2.12,7,9.54,9.33l13.77,5.08c11.87,4,27.55,12.29,27.55,32.21,0,22.25-18.86,34.75-43.44,34.75C428.43,236.26,411.69,225.88,408.3,204.9Z"/><path class="cls-1" d="M551.54,83.69h36.87l45.35,107.86L679.11,83.69H716V234.14H682.5V147.9h-1.06l-35.39,86.24H621.47L586.08,147.9H585v86.24H551.54Z"/><path class="cls-1" d="M735.9,83.69h32.85V112.3H735.9Zm0,40.26h32.85V234.14H735.9Z"/><path class="cls-2" d="M122.5,73H156V192.76h56v30.73H122.5Z"/><path class="cls-2" d="M334.19,223.49H301.35v-14c-6.15,9.33-17,16.11-32.64,16.11-22.25,0-41.11-13.78-41.11-47.47V113.3h32.85v59.12c0,13.77,7,23.94,20.55,23.94,13.36,0,20.35-10.17,20.35-23.94V113.3h32.84Z"/><path class="cls-2" d="M354.11,73H387v28.6H354.11Zm0,40.26H387V223.49H354.11Z"/><path class="cls-2" d="M400.52,194.24l26.06-7c1.7,5.3,5.51,12.72,15.89,12.72,5.94,0,11.45-3,11.45-9.12,0-3.6-2.12-7-9.33-9.32L429.76,176c-18.22-6.57-26.07-18.44-26.07-32.21,0-20.56,18.44-32.63,40.05-32.63,20.77,0,35.82,11.65,39.63,29.45L457.73,147c-2.75-8.48-8.27-10.38-12.71-10.38-6.36,0-9.54,3.81-9.54,7.62,0,3.61,2.12,7,9.54,9.33l13.77,5.08c11.87,4,27.55,12.3,27.55,32.21,0,22.25-18.86,34.76-43.44,34.76C420.65,225.61,403.91,215.22,400.52,194.24Z"/><path class="cls-2" d="M543.76,73h36.87L626,180.89,671.33,73H708.2V223.49H674.72V137.24h-1.06l-35.39,86.25H613.69L578.3,137.24h-1.06v86.25H543.76Z"/><path class="cls-2" d="M728.12,73H761v28.6H728.12Zm0,40.26H761V223.49H728.12Z"/><path d="M1.14,290.61h14.1v2.24H3.5V303h10v2.17H3.5v10.22H15.58v2.24H1.14Z"/><path d="M18.66,312.73l2-.58a4.68,4.68,0,0,0,4.75,3.8c2.13,0,4.26-1.06,4.26-3.53,0-2-1.37-2.92-4-4l-1.52-.6c-3.26-1.33-4.59-3.23-4.59-5.4,0-2.92,2.47-4.94,5.73-4.94a5.76,5.76,0,0,1,5.89,4.14l-1.86.61a3.94,3.94,0,0,0-3.95-2.77c-1.9,0-3.53,1-3.53,3,0,1.48.91,2.62,3.23,3.57l1.33.53c3.42,1.41,5.54,2.74,5.54,5.93,0,3.84-3.3,5.55-6.57,5.55C21.81,318,19.27,316,18.66,312.73Z"/><path d="M37.05,314.24V299.77H34.5v-1.94h2.55v-5.05h2.32v5.05H43.2v1.94H39.37v14a1.75,1.75,0,0,0,2,2,4.63,4.63,0,0,0,1.79-.38v1.9a4.14,4.14,0,0,1-2.28.57C38.57,317.82,37.05,316.71,37.05,314.24Z"/><path d="M64.22,317.59H61.9v-3.46A7.31,7.31,0,0,1,55.06,318c-4.22,0-7.83-2.62-7.83-8.51V297.83h2.32v11.36c0,4.52,2.7,6.65,6.12,6.65s6.23-2.13,6.23-6.65V297.83h2.32Z"/><path d="M85.88,317.59v-4.22h-.12a8.57,8.57,0,0,1-7.9,4.6c-4.94,0-9.8-3.54-9.8-10.26s4.86-10.26,9.8-10.26a8.57,8.57,0,0,1,7.9,4.6h.12V290.61h2.31v27Zm-7.72-1.75c3.88,0,7.79-2.7,7.79-8.13s-3.91-8.13-7.79-8.13-7.79,2.66-7.79,8.13S74.29,315.84,78.16,315.84Z"/><path d="M93,290.61H95.3v2.24H93Zm0,7.22H95.3v19.76H93Z"/><path d="M99.14,307.71c0-6.73,4.86-10.26,9.8-10.26a8.58,8.58,0,0,1,7.91,4.6H117v-4.22h2.32v19.76H117v-4.22h-.11a8.58,8.58,0,0,1-7.91,4.6C104,318,99.14,314.43,99.14,307.71Zm10.11,8.13c3.87,0,7.79-2.7,7.79-8.13s-3.92-8.13-7.79-8.13-7.79,2.66-7.79,8.13S105.37,315.84,109.25,315.84Z"/><path d="M124.07,297.83h2.32v3.46a7.3,7.3,0,0,1,6.84-3.84c4.21,0,7.82,2.62,7.82,8.51v11.63h-2.32V306.23c0-4.52-2.69-6.65-6.11-6.65s-6.23,2.13-6.23,6.65v11.36h-2.32Z"/><path d="M146.87,314.24V299.77h-2.55v-1.94h2.55v-5.05h2.32v5.05H153v1.94h-3.83v14a1.75,1.75,0,0,0,2,2,4.63,4.63,0,0,0,1.79-.38v1.9a4.14,4.14,0,0,1-2.28.57C148.39,317.82,146.87,316.71,146.87,314.24Z"/><path d="M155.91,307.67c0-6.61,4.83-10.22,9.77-10.22s10.07,3.65,9.42,11.1h-17a7.71,7.71,0,0,0,8.09,7.37,8.13,8.13,0,0,0,6.27-2.66l1.21,1.25a9.93,9.93,0,0,1-7.75,3.46C160.7,318,155.91,314.32,155.91,307.67Zm17.1-1a7.08,7.08,0,0,0-7.33-7.18,7.46,7.46,0,0,0-7.56,7.18Z"/><path d="M208.7,317.59v-4.22h-.11a8.57,8.57,0,0,1-7.9,4.6c-4.94,0-9.81-3.54-9.81-10.26s4.87-10.26,9.81-10.26a8.57,8.57,0,0,1,7.9,4.6h.11V290.61H211v27ZM201,315.84c3.88,0,7.79-2.7,7.79-8.13s-3.91-8.13-7.79-8.13-7.79,2.66-7.79,8.13S197.11,315.84,201,315.84Z"/><path d="M214.86,307.67c0-6.61,4.83-10.22,9.77-10.22s10.06,3.65,9.42,11.1h-17a7.72,7.72,0,0,0,8.1,7.37,8.14,8.14,0,0,0,6.27-2.66l1.21,1.25a9.93,9.93,0,0,1-7.75,3.46C219.65,318,214.86,314.32,214.86,307.67Zm17.1-1a7.08,7.08,0,0,0-7.33-7.18,7.47,7.47,0,0,0-7.57,7.18Z"/><path d="M252.38,314.24V299.77h-2.55v-1.94h2.55v-5.05h2.31v5.05h3.84v1.94h-3.84v14a1.76,1.76,0,0,0,2,2,4.66,4.66,0,0,0,1.79-.38v1.9a4.14,4.14,0,0,1-2.28.57C253.9,317.82,252.38,316.71,252.38,314.24Z"/><path d="M262.56,297.83h2.32v4.6a6.42,6.42,0,0,1,6.42-5,3.93,3.93,0,0,1,1,.11v2.17a3.61,3.61,0,0,0-1-.11c-3.61,0-6.46,2.85-6.46,7.48v10.49h-2.32Z"/><path d="M274.64,307.71c0-6.73,4.87-10.26,9.81-10.26a8.57,8.57,0,0,1,7.9,4.6h.11v-4.22h2.32v19.76h-2.32v-4.22h-.11a8.57,8.57,0,0,1-7.9,4.6C279.51,318,274.64,314.43,274.64,307.71Zm10.11,8.13c3.88,0,7.79-2.7,7.79-8.13s-3.91-8.13-7.79-8.13-7.79,2.66-7.79,8.13S280.88,315.84,284.75,315.84Z"/><path d="M301.89,290.61v11.44H302a8.58,8.58,0,0,1,7.91-4.6c4.94,0,9.8,3.53,9.8,10.26S314.85,318,309.91,318a8.58,8.58,0,0,1-7.91-4.6h-.11v4.22h-2.32v-27Zm7.71,25.23c3.88,0,7.79-2.66,7.79-8.13s-3.91-8.13-7.79-8.13-7.79,2.7-7.79,8.13S305.73,315.84,309.6,315.84Z"/><path d="M322.6,307.71c0-6.73,4.86-10.26,9.8-10.26a8.58,8.58,0,0,1,7.91,4.6h.11v-4.22h2.32v19.76h-2.32v-4.22h-.11a8.58,8.58,0,0,1-7.91,4.6C327.46,318,322.6,314.43,322.6,307.71Zm10.11,8.13c3.87,0,7.79-2.7,7.79-8.13s-3.92-8.13-7.79-8.13-7.79,2.66-7.79,8.13S328.83,315.84,332.71,315.84Z"/><path d="M341.71,322.76h.76c3,0,5.1-1,5.1-5.36V297.83h2.31v19.72c0,5.81-3,7.37-7.41,7.37h-.76Zm5.86-32.15h2.31v2.24h-2.31Z"/><path d="M353.72,307.71A10.19,10.19,0,1,1,363.9,318,10,10,0,0,1,353.72,307.71Zm10.18,8.13a8.13,8.13,0,1,0-7.86-8.13A7.76,7.76,0,0,0,363.9,315.84Z"/><path d="M389.64,312.73l2-.58a4.67,4.67,0,0,0,4.74,3.8c2.13,0,4.26-1.06,4.26-3.53,0-2-1.37-2.92-4-4l-1.52-.6c-3.27-1.33-4.6-3.23-4.6-5.4,0-2.92,2.47-4.94,5.74-4.94a5.78,5.78,0,0,1,5.89,4.14l-1.86.61a4,4,0,0,0-4-2.77c-1.9,0-3.53,1-3.53,3,0,1.48.91,2.62,3.23,3.57l1.33.53c3.42,1.41,5.55,2.74,5.55,5.93,0,3.84-3.31,5.55-6.58,5.55C392.79,318,390.25,316,389.64,312.73Z"/><path d="M405.87,307.71A10.18,10.18,0,1,1,416.05,318,10,10,0,0,1,405.87,307.71Zm10.18,8.13a8.13,8.13,0,1,0-7.87-8.13A7.75,7.75,0,0,0,416.05,315.84Z"/><path d="M429.12,307.75a10,10,0,0,1,10.15-10.3,9.4,9.4,0,0,1,8.43,4.86l-1.82,1a7.37,7.37,0,0,0-6.54-3.76,8.13,8.13,0,0,0,0,16.26,7.37,7.37,0,0,0,6.54-3.76l1.82,1a9.39,9.39,0,0,1-8.43,4.87A10,10,0,0,1,429.12,307.75Z"/><path d="M451.54,290.61h2.32v2.24h-2.32Zm0,7.22h2.32v19.76h-2.32Z"/><path d="M457.7,307.71c0-6.73,4.86-10.26,9.8-10.26a8.57,8.57,0,0,1,7.9,4.6h.12v-4.22h2.32v19.76h-2.32v-4.22h-.12a8.57,8.57,0,0,1-7.9,4.6C462.56,318,457.7,314.43,457.7,307.71Zm10.11,8.13c3.87,0,7.78-2.7,7.78-8.13s-3.91-8.13-7.78-8.13-7.79,2.66-7.79,8.13S463.93,315.84,467.81,315.84Z"/><path d="M482.63,290.61h2.31v27h-2.31Z"/><path d="M491.21,315h2.17l-2.81,7.91h-2.13Z"/><path d="M509.54,290.61h2.32v27h-2.32Z"/><path d="M516.65,290.61H519v2.24h-2.31Zm0,7.22H519v19.76h-2.31Z"/><path d="M540.62,317.59v-4.22h-.11a8.57,8.57,0,0,1-7.9,4.6c-4.94,0-9.81-3.54-9.81-10.26s4.87-10.26,9.81-10.26a8.57,8.57,0,0,1,7.9,4.6h.11V290.61h2.32v27Zm-7.71-1.75c3.87,0,7.79-2.7,7.79-8.13s-3.92-8.13-7.79-8.13-7.79,2.66-7.79,8.13S529,315.84,532.91,315.84Z"/><path d="M546.78,307.67c0-6.61,4.83-10.22,9.77-10.22s10.06,3.65,9.42,11.1H549a7.72,7.72,0,0,0,8.1,7.37,8.16,8.16,0,0,0,6.27-2.66l1.21,1.25a9.93,9.93,0,0,1-7.75,3.46C551.57,318,546.78,314.32,546.78,307.67Zm17.1-1a7.08,7.08,0,0,0-7.33-7.18,7.47,7.47,0,0,0-7.57,7.18Z"/><path d="M569.85,297.83h2.31v4.6a6.43,6.43,0,0,1,6.42-5,3.93,3.93,0,0,1,1,.11v2.17a3.56,3.56,0,0,0-1-.11c-3.61,0-6.46,2.85-6.46,7.48v10.49h-2.31Z"/><path d="M612.41,317.59v-4.22h-.11a8.57,8.57,0,0,1-7.9,4.6c-4.94,0-9.81-3.54-9.81-10.26s4.87-10.26,9.81-10.26a8.57,8.57,0,0,1,7.9,4.6h.11V290.61h2.32v27Zm-7.71-1.75c3.88,0,7.79-2.7,7.79-8.13s-3.91-8.13-7.79-8.13-7.79,2.66-7.79,8.13S600.83,315.84,604.7,315.84Z"/><path d="M618.57,307.67c0-6.61,4.83-10.22,9.77-10.22s10.07,3.65,9.42,11.1h-17a7.71,7.71,0,0,0,8.09,7.37,8.14,8.14,0,0,0,6.27-2.66l1.21,1.25A9.93,9.93,0,0,1,628.6,318C623.36,318,618.57,314.32,618.57,307.67Zm17.1-1a7.08,7.08,0,0,0-7.33-7.18,7.46,7.46,0,0,0-7.56,7.18Z"/><path d="M654.49,297.83h2.32v4.22h.11a8.58,8.58,0,0,1,7.91-4.6c4.94,0,9.8,3.53,9.8,10.26S669.77,318,664.83,318a8.58,8.58,0,0,1-7.91-4.6h-.11v11.44h-2.32Zm10,18c3.88,0,7.79-2.66,7.79-8.13s-3.91-8.13-7.79-8.13-7.79,2.7-7.79,8.13S660.65,315.84,664.52,315.84Z"/><path d="M678.47,297.83h2.32v4.6a6.42,6.42,0,0,1,6.42-5,3.8,3.8,0,0,1,1,.11v2.17a3.48,3.48,0,0,0-1-.11c-3.61,0-6.46,2.85-6.46,7.48v10.49h-2.32Z"/><path d="M690.55,307.71A10.19,10.19,0,1,1,700.74,318,10,10,0,0,1,690.55,307.71Zm10.19,8.13a8.13,8.13,0,1,0-7.87-8.13A7.75,7.75,0,0,0,700.74,315.84Z"/><path d="M720.65,317.44l-8.36-19.61h2.43l7.07,16.79,7.07-16.79h2.43l-8.44,19.76-3.19,7.22h-2.28Z"/><path d="M732.66,307.67c0-6.61,4.82-10.22,9.76-10.22s10.07,3.65,9.42,11.1h-17a7.71,7.71,0,0,0,8.09,7.37,8.13,8.13,0,0,0,6.27-2.66l1.22,1.25a9.94,9.94,0,0,1-7.75,3.46C737.44,318,732.66,314.32,732.66,307.67Zm17.09-1a7.08,7.08,0,0,0-7.33-7.18,7.46,7.46,0,0,0-7.56,7.18Z"/><path d="M754.77,307.75a10,10,0,0,1,10.15-10.3,9.4,9.4,0,0,1,8.43,4.86l-1.82,1a7.37,7.37,0,0,0-6.54-3.76,8.13,8.13,0,0,0,0,16.26,7.37,7.37,0,0,0,6.54-3.76l1.82,1a9.39,9.39,0,0,1-8.43,4.87A10,10,0,0,1,754.77,307.75Z"/><path d="M778.79,314.24V299.77h-2.55v-1.94h2.55v-5.05h2.32v5.05h3.83v1.94h-3.83v14a1.75,1.75,0,0,0,2,2,4.63,4.63,0,0,0,1.79-.38v1.9a4.14,4.14,0,0,1-2.28.57C780.31,317.82,778.79,316.71,778.79,314.24Z"/><path d="M787.83,307.71A10.19,10.19,0,1,1,798,318,10,10,0,0,1,787.83,307.71ZM798,315.84a8.13,8.13,0,1,0-7.87-8.13A7.75,7.75,0,0,0,798,315.84Z"/><path d="M810.33,312.73l2-.58a4.68,4.68,0,0,0,4.75,3.8c2.13,0,4.26-1.06,4.26-3.53,0-2-1.37-2.92-4-4l-1.52-.6c-3.27-1.33-4.6-3.23-4.6-5.4,0-2.92,2.47-4.94,5.74-4.94a5.78,5.78,0,0,1,5.89,4.14l-1.87.61a3.94,3.94,0,0,0-3.95-2.77c-1.9,0-3.53,1-3.53,3,0,1.48.91,2.62,3.23,3.57l1.33.53c3.42,1.41,5.55,2.74,5.55,5.93,0,3.84-3.31,5.55-6.58,5.55C813.48,318,810.94,316,810.33,312.73Z"/><path d="M834.55,322.76h.76c3,0,5.09-1,5.09-5.36V297.83h2.31v19.72c0,5.81-3,7.37-7.4,7.37h-.76Zm5.85-32.15h2.31v2.24H840.4Z"/><path d="M864.49,317.59h-2.32v-3.46a7.31,7.31,0,0,1-6.84,3.84c-4.22,0-7.83-2.62-7.83-8.51V297.83h2.32v11.36c0,4.52,2.7,6.65,6.12,6.65s6.23-2.13,6.23-6.65V297.83h2.32Z"/><path d="M868,297.83h2.43l7.07,16.79,7.06-16.79h2.43l-8.43,19.76h-2.13Z"/><path d="M888.31,307.67c0-6.61,4.83-10.22,9.77-10.22s10.07,3.65,9.42,11.1h-17a7.71,7.71,0,0,0,8.09,7.37,8.13,8.13,0,0,0,6.27-2.66l1.22,1.25a10,10,0,0,1-7.76,3.46C893.1,318,888.31,314.32,888.31,307.67Zm17.1-1a7.08,7.08,0,0,0-7.33-7.18,7.46,7.46,0,0,0-7.56,7.18Z"/><path d="M911.38,297.83h2.32v3.46a7.3,7.3,0,0,1,6.84-3.84c4.21,0,7.82,2.62,7.82,8.51v11.63H926V306.23c0-4.52-2.69-6.65-6.11-6.65s-6.23,2.13-6.23,6.65v11.36h-2.32Z"/><path d="M933.15,290.61h2.32v2.24h-2.32Zm0,7.22h2.32v19.76h-2.32Z"/><path d="M940.26,290.61h2.32v27h-2.32Z"/><path d="M946.42,307.67c0-6.61,4.82-10.22,9.76-10.22s10.07,3.65,9.42,11.1h-17a7.71,7.71,0,0,0,8.09,7.37,8.13,8.13,0,0,0,6.27-2.66l1.22,1.25a10,10,0,0,1-7.75,3.46C951.2,318,946.42,314.32,946.42,307.67Zm17.09-1a7.08,7.08,0,0,0-7.33-7.18,7.46,7.46,0,0,0-7.56,7.18Z"/><path d="M967.77,312.73l2-.58a4.68,4.68,0,0,0,4.75,3.8c2.13,0,4.26-1.06,4.26-3.53,0-2-1.37-2.92-3.95-4l-1.52-.6c-3.27-1.33-4.6-3.23-4.6-5.4,0-2.92,2.47-4.94,5.74-4.94a5.78,5.78,0,0,1,5.89,4.14l-1.87.61a3.94,3.94,0,0,0-4-2.77c-1.9,0-3.53,1-3.53,3,0,1.48.91,2.62,3.23,3.57l1.33.53c3.42,1.41,5.55,2.74,5.55,5.93,0,3.84-3.31,5.55-6.58,5.55C970.92,318,968.38,316,967.77,312.73Z"/><path d="M985.67,315h2.16L985,322.91h-2.13Z"/><path class="cls-2" d="M.3,349.7c0-8.4,6.35-13.87,13.91-13.87a12.37,12.37,0,0,1,10.94,5.85l-3.8,2.63a8.26,8.26,0,0,0-7-3.54,8.93,8.93,0,0,0,0,17.86,8.11,8.11,0,0,0,7-3.53l3.8,2.62a12.37,12.37,0,0,1-10.94,5.85C6.61,363.57.3,358.1.3,349.7Z"/><path class="cls-2" d="M26.52,353.31c0-6.69,5.25-10.26,10.41-10.26s10.41,3.57,10.41,10.26-5.28,10.26-10.41,10.26S26.52,360,26.52,353.31ZM36.93,359a5.67,5.67,0,1,0-5.39-5.66A5.34,5.34,0,0,0,36.93,359Z"/><path class="cls-2" d="M50.27,343.43h5.09v2.7a6.79,6.79,0,0,1,6-3.08c4.06,0,7.48,2.51,7.48,8.51v11.63H63.8V352.4c0-2.89-1.56-4.79-4.22-4.79s-4.22,1.9-4.22,4.79v10.79H50.27Z"/><path class="cls-2" d="M71.63,358l4.06-1.1A3.31,3.31,0,0,0,79,359.54c1.29,0,2.55-.64,2.55-2.05,0-.95-.61-1.63-2.17-2.2l-2.43-.92c-3.27-1.17-4.63-3.26-4.63-5.66,0-3.53,3.11-5.66,6.83-5.66s6.2,2,6.84,5.05l-4,1A2.64,2.64,0,0,0,79.34,347c-1.33,0-2.13.76-2.13,1.71s.5,1.56,2.06,2.09l2.2.84c2.43.87,5.09,2.31,5.09,5.81,0,3.95-3.38,6.08-7.52,6.08C75.12,363.57,72.24,361.67,71.63,358Z"/><path class="cls-2" d="M88.5,353.31a9.8,9.8,0,0,1,10-10.26c5,0,10.72,3.54,9.62,12.24H93.33c.72,2.69,3.07,4.1,6,4.1a7.43,7.43,0,0,0,5.09-1.79l2.32,2.47a10.07,10.07,0,0,1-8,3.5C93.36,363.57,88.5,359.88,88.5,353.31Zm15.08-1.75a4.77,4.77,0,0,0-5-4.21,5.23,5.23,0,0,0-5.28,4.21Z"/><path class="cls-2" d="M105.79,365.81h1.1c2.78,0,4.33-.76,4.33-4.41v-18h5.13V361.9c0,6.15-3,8.62-9.19,8.62h-1.37Zm5.43-29.6h5.13v4.49h-5.13Z"/><path class="cls-2" d="M119.24,353.31a9.8,9.8,0,0,1,10-10.26c5,0,10.72,3.54,9.62,12.24H124.07c.72,2.69,3.08,4.1,6,4.1a7.42,7.42,0,0,0,5.09-1.79l2.32,2.47a10.07,10.07,0,0,1-8,3.5C124.11,363.57,119.24,359.88,119.24,353.31Zm15.09-1.75a4.78,4.78,0,0,0-5.06-4.21,5.23,5.23,0,0,0-5.28,4.21Z"/><path class="cls-2" d="M141.89,343.43H147v5.13c.69-3,2.62-5.51,6.19-5.51a5.43,5.43,0,0,1,1.33.15v4.87a7,7,0,0,0-1.29-.12c-3.83,0-6.23,2.66-6.23,6.61v8.63h-5.09Z"/><path class="cls-2" d="M155.87,353.31c0-6.69,5.25-10.26,10.41-10.26s10.41,3.57,10.41,10.26-5.28,10.26-10.41,10.26S155.87,360,155.87,353.31ZM166.28,359a5.67,5.67,0,1,0-5.39-5.66A5.34,5.34,0,0,0,166.28,359Z"/><path class="cls-2" d="M219.94,363.19v-2.66h-.12c-.49,1.1-2.77,3-6.3,3-4.6,0-9.5-3.42-9.5-10.26s4.9-10.26,9.5-10.26c3.53,0,5.81,1.94,6.3,3h.12v-9.88H225v27Zm-5.4-4.18a5.7,5.7,0,1,0-5.51-5.7A5.38,5.38,0,0,0,214.54,359Z"/><path class="cls-2" d="M228,353.31a9.8,9.8,0,0,1,10-10.26c5,0,10.71,3.54,9.61,12.24H232.78c.72,2.69,3.08,4.1,6,4.1a7.42,7.42,0,0,0,5.09-1.79l2.32,2.47a10,10,0,0,1-8,3.5C232.82,363.57,228,359.88,228,353.31ZM243,351.56a4.77,4.77,0,0,0-5-4.21,5.22,5.22,0,0,0-5.28,4.21Z"/><path class="cls-2" d="M250.6,336.21h5.1v27h-5.1Z"/><path class="cls-2" d="M284.54,349.7c0-8.4,6.34-13.87,13.9-13.87a12.37,12.37,0,0,1,10.94,5.85l-3.8,2.63a8.24,8.24,0,0,0-7-3.54,8.93,8.93,0,0,0,0,17.86,8.1,8.1,0,0,0,6.95-3.53l3.8,2.62a12.37,12.37,0,0,1-10.94,5.85C290.84,363.57,284.54,358.1,284.54,349.7Z"/><path class="cls-2" d="M312.47,336.21h5.73L327,356.54l8.81-20.33h5.74v27h-5.21V346.24h-.19l-7.25,16.95h-3.84l-7.22-16.95h-.19v16.95h-5.2Z"/><path class="cls-2" d="M344.31,359.5l3.34-3.38a5.19,5.19,0,0,0,4.26,2.43c1.37,0,4.18-.53,4.18-5V336.21h5.2v18.05c0,6.92-4.75,9.31-9.12,9.31A8.8,8.8,0,0,1,344.31,359.5Z"/><path class="cls-2" d="M363.69,360.64a2.93,2.93,0,1,1,2.92,2.93A2.85,2.85,0,0,1,363.69,360.64Z"/><path d="M397,360.15l1.55-1.52a5.54,5.54,0,0,0,4.87,2.66c3.07,0,5.35-1.9,5.35-6.12v-19h2.36V355.4c0,5.74-3.61,8.17-7.64,8.17A7.13,7.13,0,0,1,397,360.15Z"/><path d="M432.88,363.19h-2.32v-3.46a7.3,7.3,0,0,1-6.83,3.84c-4.22,0-7.83-2.62-7.83-8.51V343.43h2.32v11.36c0,4.52,2.69,6.65,6.11,6.65s6.23-2.13,6.23-6.65V343.43h2.32Z"/><path d="M437.67,343.43H440v3.46a7.31,7.31,0,0,1,6.84-3.84c4.22,0,7.83,2.62,7.83,8.51v11.63h-2.32V351.83c0-4.52-2.7-6.65-6.12-6.65s-6.23,2.13-6.23,6.65v11.36h-2.32Z"/><path d="M460.47,359.85V345.37h-2.54v-1.94h2.54v-5.05h2.32v5.05h3.84v1.94h-3.84v14a1.76,1.76,0,0,0,2,2,4.62,4.62,0,0,0,1.78-.38v1.9a4.12,4.12,0,0,1-2.28.57C462,363.42,460.47,362.31,460.47,359.85Z"/><path d="M469.52,353.31a10.18,10.18,0,1,1,10.18,10.26A10,10,0,0,1,469.52,353.31Zm10.18,8.13a8.13,8.13,0,1,0-7.87-8.13A7.75,7.75,0,0,0,479.7,361.44Z"/><path d="M519.59,353.31c0-6.72,4.87-10.26,9.81-10.26a8.57,8.57,0,0,1,7.9,4.6h.11v-4.22h2.32v19.76h-2.32V359h-.11a8.57,8.57,0,0,1-7.9,4.6C524.46,363.57,519.59,360,519.59,353.31Zm10.11,8.13c3.88,0,7.79-2.7,7.79-8.13s-3.91-8.13-7.79-8.13-7.79,2.66-7.79,8.13S525.82,361.44,529.7,361.44Z"/><path d="M588.32,363.19H586v-3.46a7.31,7.31,0,0,1-6.84,3.84c-4.22,0-7.83-2.62-7.83-8.51V343.43h2.32v11.36c0,4.52,2.7,6.65,6.12,6.65s6.23-2.13,6.23-6.65V343.43h2.31Z"/><path d="M593.12,343.43h2.31v3.46a7.31,7.31,0,0,1,6.84-3.84c4.22,0,7.83,2.62,7.83,8.51v11.63h-2.32V351.83c0-4.52-2.7-6.65-6.12-6.65s-6.23,2.13-6.23,6.65v11.36h-2.31Z"/><path d="M640.76,353.27c0-6.61,4.82-10.22,9.76-10.22s10.07,3.65,9.43,11.1H643a7.72,7.72,0,0,0,8.1,7.37,8.16,8.16,0,0,0,6.27-2.66l1.21,1.25a9.93,9.93,0,0,1-7.75,3.46C645.55,363.57,640.76,359.92,640.76,353.27Zm17.1-1a7.09,7.09,0,0,0-7.34-7.18,7.47,7.47,0,0,0-7.56,7.18Z"/><path d="M680.69,370.41V359h-.11a8.57,8.57,0,0,1-7.9,4.6c-4.94,0-9.8-3.53-9.8-10.26s4.86-10.26,9.8-10.26a8.57,8.57,0,0,1,7.9,4.6h.11v-4.22H683v27Zm-7.71-9c3.88,0,7.79-2.7,7.79-8.13s-3.91-8.13-7.79-8.13-7.79,2.66-7.79,8.13S669.11,361.44,673,361.44Z"/><path d="M704.79,363.19h-2.32v-3.46a7.31,7.31,0,0,1-6.84,3.84c-4.22,0-7.83-2.62-7.83-8.51V343.43h2.32v11.36c0,4.52,2.7,6.65,6.12,6.65s6.23-2.13,6.23-6.65V343.43h2.32Z"/><path d="M709.58,336.21h2.31v2.24h-2.31Zm0,7.22h2.31v19.76h-2.31Z"/><path d="M716.68,343.43H719v4.22h.11a8.58,8.58,0,0,1,7.91-4.6c4.94,0,9.8,3.54,9.8,10.26S732,363.57,727,363.57a8.58,8.58,0,0,1-7.91-4.6H719v11.44h-2.32Zm10,18c3.88,0,7.79-2.66,7.79-8.13s-3.91-8.13-7.79-8.13-7.79,2.7-7.79,8.13S722.84,361.44,726.71,361.44Z"/><path d="M739.71,353.31a10.19,10.19,0,1,1,10.18,10.26A10,10,0,0,1,739.71,353.31Zm10.18,8.13a8.13,8.13,0,1,0-7.86-8.13A7.76,7.76,0,0,0,749.89,361.44Z"/><path d="M807.61,363.19V359h-.12a8.57,8.57,0,0,1-7.9,4.6c-4.94,0-9.8-3.53-9.8-10.26s4.86-10.26,9.8-10.26a8.57,8.57,0,0,1,7.9,4.6h.12V336.21h2.31v27Zm-7.72-1.75c3.88,0,7.79-2.7,7.79-8.13s-3.91-8.13-7.79-8.13-7.79,2.66-7.79,8.13S796,361.44,799.89,361.44Z"/><path d="M813.77,353.27c0-6.61,4.82-10.22,9.76-10.22s10.07,3.65,9.42,11.1H816a7.71,7.71,0,0,0,8.09,7.37,8.13,8.13,0,0,0,6.27-2.66l1.22,1.25a10,10,0,0,1-7.75,3.46C818.55,363.57,813.77,359.92,813.77,353.27Zm17.09-1a7.08,7.08,0,0,0-7.33-7.18,7.46,7.46,0,0,0-7.56,7.18Z"/><path d="M862.7,353.31c0-6.72,4.86-10.26,9.8-10.26a8.58,8.58,0,0,1,7.91,4.6h.11v-4.22h2.32v19.76h-2.32V359h-.11a8.58,8.58,0,0,1-7.91,4.6C867.56,363.57,862.7,360,862.7,353.31Zm10.11,8.13c3.87,0,7.79-2.7,7.79-8.13s-3.92-8.13-7.79-8.13-7.79,2.66-7.79,8.13S868.93,361.44,872.81,361.44Z"/><path d="M900.93,351.71c0-3.95-1.75-6.53-5.36-6.53s-5.62,2.58-5.62,6.53v11.48h-2.32V343.43H890v3.23a7,7,0,0,1,12.65.72,7,7,0,0,1,6.8-4.33c4.1,0,7.14,2.59,7.14,8.44v11.7h-2.32V351.71c0-3.95-1.74-6.53-5.35-6.53s-5.62,2.58-5.62,6.53v11.48h-2.32Z"/><path d="M921.33,336.21h2.32v2.24h-2.32Zm0,7.22h2.32v19.76h-2.32Z"/><path d="M932,369.69v-2.06a10.17,10.17,0,0,0,5.55,1.45c4,0,7.75-1.75,7.75-6.92V359h-.15a8.58,8.58,0,0,1-7.91,4.6c-4.86,0-9.76-3.53-9.76-10.26s4.9-10.26,9.76-10.26a8.58,8.58,0,0,1,7.91,4.6h.15v-4.22h2.32v18.85c0,6.68-5.17,8.81-9.8,8.81A11.18,11.18,0,0,1,932,369.69Zm5.55-8.25a8.14,8.14,0,0,0,0-16.26c-3.84,0-7.75,2.66-7.75,8.13S933.72,361.44,937.56,361.44Z"/><path d="M951.47,353.31a10.18,10.18,0,1,1,10.18,10.26A10,10,0,0,1,951.47,353.31Zm10.18,8.13a8.13,8.13,0,1,0-7.86-8.13A7.76,7.76,0,0,0,961.65,361.44Z"/><path d="M974,358.33l2-.57a4.68,4.68,0,0,0,4.75,3.8c2.13,0,4.25-1.07,4.25-3.54,0-2-1.36-2.92-4-4l-1.52-.6c-3.26-1.33-4.59-3.23-4.59-5.4,0-2.92,2.46-4.94,5.73-4.94a5.76,5.76,0,0,1,5.89,4.14l-1.86.61a3.94,3.94,0,0,0-3.95-2.77c-1.9,0-3.53,1-3.53,3,0,1.48.91,2.62,3.22,3.57l1.33.53c3.42,1.41,5.55,2.74,5.55,5.93,0,3.84-3.3,5.55-6.57,5.55C977.12,363.57,974.57,361.56,974,358.33Z"/><path d="M2.74,405.44V391H.19V389H2.74v-5H5.05v5H8.89V391H5.05v14a1.76,1.76,0,0,0,2,2,4.62,4.62,0,0,0,1.78-.38v1.9a4.11,4.11,0,0,1-2.27.57C4.26,409,2.74,407.91,2.74,405.44Z"/><path d="M12.92,389h2.32v4.6a6.42,6.42,0,0,1,6.42-5,3.42,3.42,0,0,1,1,.12v2.16a3.53,3.53,0,0,0-1-.11c-3.61,0-6.46,2.85-6.46,7.48v10.49H12.92Z"/><path d="M25,398.91c0-6.73,4.87-10.26,9.81-10.26a8.57,8.57,0,0,1,7.9,4.6h.11V389h2.32v19.76H42.82v-4.22h-.11a8.57,8.57,0,0,1-7.9,4.6C29.87,409.17,25,405.64,25,398.91ZM35.11,407c3.88,0,7.79-2.7,7.79-8.13s-3.91-8.13-7.79-8.13-7.79,2.66-7.79,8.13S31.23,407,35.11,407Z"/><path d="M52.25,381.81v11.44h.11a8.58,8.58,0,0,1,7.91-4.6c4.94,0,9.8,3.53,9.8,10.26s-4.86,10.26-9.8,10.26a8.58,8.58,0,0,1-7.91-4.6h-.11v4.22H49.93v-27ZM60,407c3.88,0,7.79-2.66,7.79-8.13s-3.91-8.13-7.79-8.13-7.79,2.7-7.79,8.13S56.09,407,60,407Z"/><path d="M73,398.91c0-6.73,4.86-10.26,9.8-10.26a8.59,8.59,0,0,1,7.91,4.6h.11V389H93.1v19.76H90.78v-4.22h-.11a8.59,8.59,0,0,1-7.91,4.6C77.82,409.17,73,405.64,73,398.91ZM83.07,407c3.87,0,7.78-2.7,7.78-8.13s-3.91-8.13-7.78-8.13-7.79,2.66-7.79,8.13S79.19,407,83.07,407Z"/><path d="M92.07,414h.76c3,0,5.1-1,5.1-5.36V389h2.31v19.72c0,5.81-3,7.37-7.41,7.37h-.76Zm5.86-32.15h2.31v2.24H97.93Z"/><path d="M104.08,398.91c0-6.73,4.86-10.26,9.8-10.26a8.58,8.58,0,0,1,7.91,4.6h.11V389h2.32v19.76H121.9v-4.22h-.11a8.58,8.58,0,0,1-7.91,4.6C108.94,409.17,104.08,405.64,104.08,398.91ZM114.19,407c3.87,0,7.79-2.7,7.79-8.13s-3.92-8.13-7.79-8.13-7.79,2.66-7.79,8.13S110.31,407,114.19,407Z"/><path d="M142.31,397.31c0-3.95-1.75-6.53-5.36-6.53s-5.62,2.58-5.62,6.53v11.48H129V389h2.32v3.23A7,7,0,0,1,144,393a7,7,0,0,1,6.8-4.33c4.1,0,7.14,2.58,7.14,8.44v11.7H155.6V397.31c0-3.95-1.74-6.53-5.35-6.53s-5.63,2.58-5.63,6.53v11.48h-2.31Z"/><path d="M161.76,398.91A10.19,10.19,0,1,1,172,409.17,10,10,0,0,1,161.76,398.91ZM172,407a8.13,8.13,0,1,0-7.87-8.13A7.75,7.75,0,0,0,172,407Z"/><path d="M184.26,403.93l2-.58a4.68,4.68,0,0,0,4.75,3.8c2.13,0,4.26-1.06,4.26-3.53,0-2-1.37-2.92-3.95-4l-1.52-.6c-3.27-1.33-4.6-3.23-4.6-5.4,0-2.92,2.47-4.94,5.74-4.94a5.78,5.78,0,0,1,5.89,4.14l-1.87.61a3.94,3.94,0,0,0-3.95-2.77c-1.9,0-3.53,1-3.53,3,0,1.48.91,2.62,3.23,3.57l1.33.53c3.42,1.41,5.55,2.74,5.55,5.93,0,3.84-3.31,5.55-6.58,5.55C187.41,409.17,184.87,407.15,184.26,403.93Z"/><path d="M212.77,405.44V391h-2.54V389h2.54v-5h2.32v5h3.84V391h-3.84v14a1.76,1.76,0,0,0,2,2,4.62,4.62,0,0,0,1.78-.38v1.9a4.12,4.12,0,0,1-2.28.57C214.29,409,212.77,407.91,212.77,405.44Z"/><path d="M221.82,398.91A10.18,10.18,0,1,1,232,409.17,10,10,0,0,1,221.82,398.91ZM232,407a8.13,8.13,0,1,0-7.87-8.13A7.75,7.75,0,0,0,232,407Z"/><path d="M262.89,408.79v-4.22h-.11a8.57,8.57,0,0,1-7.9,4.6c-4.94,0-9.81-3.53-9.81-10.26s4.87-10.26,9.81-10.26a8.57,8.57,0,0,1,7.9,4.6h.11V381.81h2.32v27ZM255.18,407c3.88,0,7.79-2.7,7.79-8.13s-3.91-8.13-7.79-8.13-7.79,2.66-7.79,8.13S251.3,407,255.18,407Z"/><path d="M269.05,398.91a10.19,10.19,0,1,1,10.18,10.26A10,10,0,0,1,269.05,398.91ZM279.23,407a8.13,8.13,0,1,0-7.86-8.13A7.76,7.76,0,0,0,279.23,407Z"/><path d="M291.55,403.93l2-.58a4.68,4.68,0,0,0,4.75,3.8c2.13,0,4.26-1.06,4.26-3.53,0-2-1.37-2.92-4-4l-1.52-.6c-3.26-1.33-4.59-3.23-4.59-5.4,0-2.92,2.47-4.94,5.73-4.94a5.76,5.76,0,0,1,5.89,4.14l-1.86.61a3.94,3.94,0,0,0-3.95-2.77c-1.9,0-3.53,1-3.53,3,0,1.48.91,2.62,3.23,3.57l1.33.53c3.42,1.41,5.54,2.74,5.54,5.93,0,3.84-3.3,5.55-6.57,5.55C294.7,409.17,292.16,407.15,291.55,403.93Z"/><path d="M318.46,381.81h2.32v27h-2.32Z"/><path d="M324.62,398.91a10.18,10.18,0,1,1,10.18,10.26A10,10,0,0,1,324.62,398.91ZM334.8,407a8.13,8.13,0,1,0-7.86-8.13A7.76,7.76,0,0,0,334.8,407Z"/><path d="M347.11,403.93l2-.58a4.68,4.68,0,0,0,4.75,3.8c2.13,0,4.25-1.06,4.25-3.53,0-2-1.36-2.92-3.95-4l-1.52-.6c-3.27-1.33-4.6-3.23-4.6-5.4,0-2.92,2.47-4.94,5.74-4.94a5.76,5.76,0,0,1,5.89,4.14l-1.86.61a3.94,3.94,0,0,0-3.95-2.77c-1.9,0-3.54,1-3.54,3,0,1.48.92,2.62,3.23,3.57l1.33.53c3.42,1.41,5.55,2.74,5.55,5.93,0,3.84-3.3,5.55-6.57,5.55C350.27,409.17,347.72,407.15,347.11,403.93Z"/><path d="M390.9,408.79v-4.22h-.11a8.58,8.58,0,0,1-7.91,4.6c-4.94,0-9.8-3.53-9.8-10.26s4.86-10.26,9.8-10.26a8.58,8.58,0,0,1,7.91,4.6h.11V381.81h2.32v27ZM383.19,407c3.87,0,7.79-2.7,7.79-8.13s-3.92-8.13-7.79-8.13-7.79,2.66-7.79,8.13S379.31,407,383.19,407Z"/><path d="M398,389h2.32v19.76H398Zm3.53-8.36h2.13l-3.42,5.85h-2.09Z"/><path d="M404.17,398.91c0-6.73,4.86-10.26,9.8-10.26a8.57,8.57,0,0,1,7.9,4.6H422V389h2.32v19.76H422v-4.22h-.11a8.57,8.57,0,0,1-7.9,4.6C409,409.17,404.17,405.64,404.17,398.91Zm10.1,8.13c3.88,0,7.79-2.7,7.79-8.13s-3.91-8.13-7.79-8.13-7.79,2.66-7.79,8.13S410.4,407,414.27,407Z"/><path d="M428,403.93l2-.58a4.68,4.68,0,0,0,4.75,3.8c2.12,0,4.25-1.06,4.25-3.53,0-2-1.37-2.92-4-4l-1.52-.6c-3.27-1.33-4.6-3.23-4.6-5.4,0-2.92,2.47-4.94,5.74-4.94a5.77,5.77,0,0,1,5.89,4.14l-1.86.61a3.94,3.94,0,0,0-3.95-2.77c-1.9,0-3.54,1-3.54,3,0,1.48.91,2.62,3.23,3.57l1.33.53c3.42,1.41,5.55,2.74,5.55,5.93,0,3.84-3.31,5.55-6.57,5.55C431.11,409.17,428.56,407.15,428,403.93Z"/><path d="M453.92,399a10,10,0,0,1,10.14-10.3,9.41,9.41,0,0,1,8.44,4.87l-1.82,1a7.37,7.37,0,0,0-6.54-3.76,8.13,8.13,0,0,0,0,16.26,7.37,7.37,0,0,0,6.54-3.76l1.82,1a9.42,9.42,0,0,1-8.44,4.86A10,10,0,0,1,453.92,399Z"/><path d="M475.16,398.91a10.19,10.19,0,1,1,10.19,10.26A10,10,0,0,1,475.16,398.91ZM485.35,407a8.13,8.13,0,1,0-7.87-8.13A7.75,7.75,0,0,0,485.35,407Z"/><path d="M499.37,389h2.32v3.46a7.3,7.3,0,0,1,6.83-3.84c4.22,0,7.83,2.62,7.83,8.51v11.63H514V397.43c0-4.52-2.69-6.65-6.11-6.65s-6.23,2.13-6.23,6.65v11.36h-2.32Z"/><path d="M530.88,381.81h2.32v27h-2.32Z"/><path d="M537,398.91c0-6.73,4.86-10.26,9.8-10.26a8.57,8.57,0,0,1,7.9,4.6h.12V389h2.32v19.76h-2.32v-4.22h-.12a8.57,8.57,0,0,1-7.9,4.6C541.9,409.17,537,405.64,537,398.91ZM547.15,407c3.87,0,7.78-2.7,7.78-8.13s-3.91-8.13-7.78-8.13-7.79,2.66-7.79,8.13S543.27,407,547.15,407Z"/><path d="M570.22,399a10,10,0,0,1,10.15-10.3,9.4,9.4,0,0,1,8.43,4.87l-1.82,1a7.37,7.37,0,0,0-6.54-3.76,8.13,8.13,0,0,0,0,16.26,7.37,7.37,0,0,0,6.54-3.76l1.82,1a9.41,9.41,0,0,1-8.43,4.86A10,10,0,0,1,570.22,399Z"/><path d="M591.46,398.91a10.19,10.19,0,1,1,10.19,10.26A10,10,0,0,1,591.46,398.91ZM601.65,407a8.13,8.13,0,1,0-7.87-8.13A7.75,7.75,0,0,0,601.65,407Z"/><path d="M615.67,389H618v3.46a7.3,7.3,0,0,1,6.83-3.84c4.22,0,7.83,2.62,7.83,8.51v11.63h-2.32V397.43c0-4.52-2.69-6.65-6.11-6.65s-6.23,2.13-6.23,6.65v11.36h-2.32Z"/><path d="M634.21,389h2.43l7.07,16.79L650.78,389h2.43l-8.43,19.76h-2.13Z"/><path d="M656.67,381.81H659v2.24h-2.32Zm0,7.22H659v19.76h-2.32Z"/><path d="M662.83,399A10,10,0,0,1,673,388.65a9.41,9.41,0,0,1,8.44,4.87l-1.83,1a7.35,7.35,0,0,0-6.53-3.76,8.13,8.13,0,0,0,0,16.26,7.35,7.35,0,0,0,6.53-3.76l1.83,1a9.42,9.42,0,0,1-8.44,4.86A10,10,0,0,1,662.83,399Z"/><path d="M684.07,399a10,10,0,0,1,10.14-10.3,9.41,9.41,0,0,1,8.44,4.87l-1.83,1a7.35,7.35,0,0,0-6.53-3.76,8.13,8.13,0,0,0,0,16.26,7.35,7.35,0,0,0,6.53-3.76l1.83,1a9.42,9.42,0,0,1-8.44,4.86A10,10,0,0,1,684.07,399Z"/><path d="M706.49,381.81h2.32v2.24h-2.32Zm0,7.22h2.32v19.76h-2.32Z"/><path d="M712.64,398.91a10.19,10.19,0,1,1,10.19,10.26A10,10,0,0,1,712.64,398.91ZM722.83,407a8.13,8.13,0,1,0-7.87-8.13A7.75,7.75,0,0,0,722.83,407Zm2.39-26.37h2.13l-3.42,5.85h-2.09Z"/><path d="M736.85,389h2.32v3.46a7.31,7.31,0,0,1,6.84-3.84c4.21,0,7.82,2.62,7.82,8.51v11.63h-2.31V397.43c0-4.52-2.7-6.65-6.12-6.65s-6.23,2.13-6.23,6.65v11.36h-2.32Z"/><path d="M785.23,408.79v-4.22h-.11a8.57,8.57,0,0,1-7.9,4.6c-4.94,0-9.81-3.53-9.81-10.26s4.87-10.26,9.81-10.26a8.57,8.57,0,0,1,7.9,4.6h.11V381.81h2.32v27ZM777.52,407c3.88,0,7.79-2.7,7.79-8.13s-3.91-8.13-7.79-8.13-7.79,2.66-7.79,8.13S773.65,407,777.52,407Z"/><path d="M791.39,398.87c0-6.61,4.83-10.22,9.77-10.22s10.07,3.65,9.42,11.1h-17a7.71,7.71,0,0,0,8.09,7.37,8.14,8.14,0,0,0,6.27-2.66l1.21,1.25a9.93,9.93,0,0,1-7.75,3.46C796.18,409.17,791.39,405.52,791.39,398.87Zm17.1-1a7.08,7.08,0,0,0-7.33-7.18,7.46,7.46,0,0,0-7.56,7.18Z"/><path d="M837.5,397.31c0-3.95-1.75-6.53-5.36-6.53s-5.62,2.58-5.62,6.53v11.48H824.2V389h2.32v3.23a7,7,0,0,1,12.65.72,7,7,0,0,1,6.8-4.33c4.1,0,7.14,2.58,7.14,8.44v11.7h-2.32V397.31c0-3.95-1.74-6.53-5.35-6.53s-5.63,2.58-5.63,6.53v11.48H837.5Z"/><path d="M857,398.87c0-6.61,4.83-10.22,9.77-10.22s10.07,3.65,9.42,11.1h-17a7.71,7.71,0,0,0,8.09,7.37,8.13,8.13,0,0,0,6.27-2.66l1.21,1.25a9.93,9.93,0,0,1-7.75,3.46C861.74,409.17,857,405.52,857,398.87Zm17.1-1a7.08,7.08,0,0,0-7.33-7.18,7.46,7.46,0,0,0-7.56,7.18Z"/><path d="M874.21,414H875c3,0,5.09-1,5.09-5.36V389h2.32v19.72c0,5.81-3,7.37-7.41,7.37h-.76Zm5.85-32.15h2.32v2.24h-2.32Z"/><path d="M886.21,398.91a10.19,10.19,0,1,1,10.19,10.26A10,10,0,0,1,886.21,398.91ZM896.4,407a8.13,8.13,0,1,0-7.87-8.13A7.75,7.75,0,0,0,896.4,407Z"/><path d="M910.42,389h2.32v4.6a6.42,6.42,0,0,1,6.42-5,3.42,3.42,0,0,1,1,.12v2.16a3.53,3.53,0,0,0-1-.11c-3.61,0-6.46,2.85-6.46,7.48v10.49h-2.32Z"/><path d="M922.5,398.91c0-6.73,4.87-10.26,9.81-10.26a8.57,8.57,0,0,1,7.9,4.6h.11V389h2.32v19.76h-2.32v-4.22h-.11a8.57,8.57,0,0,1-7.9,4.6C927.37,409.17,922.5,405.64,922.5,398.91ZM932.61,407c3.88,0,7.79-2.7,7.79-8.13s-3.91-8.13-7.79-8.13-7.79,2.66-7.79,8.13S928.73,407,932.61,407Z"/><path d="M947.43,389h2.32v4.6a6.42,6.42,0,0,1,6.42-5,3.54,3.54,0,0,1,1,.12v2.16a3.65,3.65,0,0,0-1-.11c-3.61,0-6.46,2.85-6.46,7.48v10.49h-2.32Z"/><path d="M977,408.64,968.68,389h2.44l7.06,16.79L985.25,389h2.43l-8.43,19.76-3.2,7.22h-2.27Z"/><path d="M.19,444.55a10,10,0,0,1,10.14-10.3,9.42,9.42,0,0,1,8.44,4.86l-1.82,1a7.37,7.37,0,0,0-6.54-3.76,8.13,8.13,0,0,0,0,16.26A7.37,7.37,0,0,0,17,448.88l1.82,1a9.41,9.41,0,0,1-8.44,4.87A10,10,0,0,1,.19,444.55Z"/><path d="M21.43,444.51a10,10,0,0,1,10.18-10.26,10.26,10.26,0,0,1,0,20.52A10,10,0,0,1,21.43,444.51Zm10.18,8.13a8.13,8.13,0,1,0-7.86-8.13A7.76,7.76,0,0,0,31.61,452.64Z"/><path d="M45.64,434.63H48v3.46a7.3,7.3,0,0,1,6.83-3.84c4.22,0,7.83,2.62,7.83,8.51v11.63H60.3V443c0-4.52-2.69-6.65-6.11-6.65S48,438.51,48,443v11.36H45.64Z"/><path d="M66.27,449.52l2-.57a4.67,4.67,0,0,0,4.74,3.8c2.13,0,4.26-1.06,4.26-3.53,0-2-1.37-2.92-4-4l-1.52-.6c-3.27-1.33-4.6-3.23-4.6-5.4,0-2.92,2.47-4.94,5.74-4.94a5.78,5.78,0,0,1,5.89,4.14L77,439a4,4,0,0,0-4-2.77c-1.9,0-3.53,1-3.53,3,0,1.48.91,2.62,3.23,3.57l1.33.53c3.42,1.41,5.55,2.74,5.55,5.93,0,3.84-3.31,5.55-6.58,5.55C69.42,454.77,66.88,452.75,66.27,449.52Z"/><path d="M84.66,451V436.57H82.12v-1.94h2.54v-5.05H87v5.05h3.84v1.94H87v14a1.76,1.76,0,0,0,2,2,4.62,4.62,0,0,0,1.78-.38v1.9a4.12,4.12,0,0,1-2.28.57C86.18,454.62,84.66,453.51,84.66,451Z"/><path d="M94.85,434.63h2.31v4.6a6.44,6.44,0,0,1,6.43-5,3.85,3.85,0,0,1,1,.11v2.17a3.56,3.56,0,0,0-1-.11c-3.61,0-6.46,2.85-6.46,7.48v10.49H94.85Z"/><path d="M125.43,454.39h-2.31v-3.46a7.32,7.32,0,0,1-6.84,3.84c-4.22,0-7.83-2.62-7.83-8.51V434.63h2.32V446c0,4.52,2.7,6.65,6.12,6.65s6.23-2.13,6.23-6.65V434.63h2.31Z"/><path d="M130.22,427.41h2.32v2.24h-2.32Zm0,7.22h2.32v19.76h-2.32Z"/><path d="M137.33,434.63h2.32v4.6a6.42,6.42,0,0,1,6.42-5,3.85,3.85,0,0,1,1,.11v2.17a3.53,3.53,0,0,0-1-.11c-3.61,0-6.46,2.85-6.46,7.48v10.49h-2.32Z"/><path d="M177.26,444.47c0-6.61,4.83-10.22,9.77-10.22s10.06,3.65,9.42,11.1h-17a7.71,7.71,0,0,0,8.09,7.37,8.14,8.14,0,0,0,6.27-2.66l1.21,1.25a9.93,9.93,0,0,1-7.75,3.46C182.05,454.77,177.26,451.12,177.26,444.47Zm17.1-1A7.08,7.08,0,0,0,187,436.3a7.46,7.46,0,0,0-7.56,7.18Z"/><path d="M198.62,449.52l2-.57a4.68,4.68,0,0,0,4.75,3.8c2.13,0,4.26-1.06,4.26-3.53,0-2-1.37-2.92-4-4l-1.52-.6c-3.26-1.33-4.59-3.23-4.59-5.4,0-2.92,2.47-4.94,5.73-4.94a5.76,5.76,0,0,1,5.89,4.14l-1.86.61a3.94,3.94,0,0,0-4-2.77c-1.9,0-3.53,1-3.53,3,0,1.48.91,2.62,3.23,3.57l1.33.53c3.42,1.41,5.54,2.74,5.54,5.93,0,3.84-3.3,5.55-6.57,5.55C201.77,454.77,199.23,452.75,198.62,449.52Z"/><path d="M214.84,444.55A10,10,0,0,1,225,434.25a9.4,9.4,0,0,1,8.43,4.86l-1.82,1a7.37,7.37,0,0,0-6.54-3.76,8.13,8.13,0,0,0,0,16.26,7.37,7.37,0,0,0,6.54-3.76l1.82,1a9.39,9.39,0,0,1-8.43,4.87A10,10,0,0,1,214.84,444.55Z"/><path d="M254.25,454.39h-2.32v-3.46a7.31,7.31,0,0,1-6.84,3.84c-4.22,0-7.83-2.62-7.83-8.51V434.63h2.32V446c0,4.52,2.7,6.65,6.12,6.65s6.23-2.13,6.23-6.65V434.63h2.32Z"/><path d="M258.09,444.55a10,10,0,0,1,10.14-10.3,9.42,9.42,0,0,1,8.44,4.86l-1.83,1a7.35,7.35,0,0,0-6.53-3.76,8.13,8.13,0,0,0,0,16.26,7.35,7.35,0,0,0,6.53-3.76l1.83,1a9.41,9.41,0,0,1-8.44,4.87A10,10,0,0,1,258.09,444.55Z"/><path d="M280.51,427.41h2.31v10.68a7.32,7.32,0,0,1,6.84-3.84c4.22,0,7.83,2.62,7.83,8.51v11.63h-2.32V443c0-4.52-2.7-6.65-6.11-6.65s-6.24,2.13-6.24,6.65v11.36h-2.31Z"/><path d="M301.33,444.51c0-6.73,4.86-10.26,9.8-10.26a8.58,8.58,0,0,1,7.91,4.6h.11v-4.22h2.32v19.76h-2.32v-4.22H319a8.58,8.58,0,0,1-7.91,4.6C306.19,454.77,301.33,451.23,301.33,444.51Zm10.11,8.13c3.87,0,7.79-2.7,7.79-8.13s-3.92-8.13-7.79-8.13-7.79,2.66-7.79,8.13S307.56,452.64,311.44,452.64Z"/><path d="M326.26,434.63h2.32v3.46a7.3,7.3,0,0,1,6.84-3.84c4.21,0,7.82,2.62,7.82,8.51v11.63h-2.32V443c0-4.52-2.69-6.65-6.11-6.65s-6.23,2.13-6.23,6.65v11.36h-2.32Z"/><path d="M364.9,454.39v-4.22h-.11a8.58,8.58,0,0,1-7.91,4.6c-4.93,0-9.8-3.54-9.8-10.26s4.87-10.26,9.8-10.26a8.58,8.58,0,0,1,7.91,4.6h.11V427.41h2.32v27Zm-7.71-1.75c3.87,0,7.79-2.7,7.79-8.13s-3.92-8.13-7.79-8.13-7.79,2.66-7.79,8.13S353.31,452.64,357.19,452.64Z"/><path d="M371.06,444.51a10.19,10.19,0,1,1,10.18,10.26A10,10,0,0,1,371.06,444.51Zm10.18,8.13a8.13,8.13,0,1,0-7.86-8.13A7.76,7.76,0,0,0,381.24,452.64Z"/><path d="M423.3,427.41h2.32v27H423.3Z"/><path d="M429.46,444.51c0-6.73,4.86-10.26,9.8-10.26a8.59,8.59,0,0,1,7.91,4.6h.11v-4.22h2.32v19.76h-2.32v-4.22h-.11a8.59,8.59,0,0,1-7.91,4.6C434.32,454.77,429.46,451.23,429.46,444.51Zm10.11,8.13c3.87,0,7.78-2.7,7.78-8.13s-3.91-8.13-7.78-8.13-7.79,2.66-7.79,8.13S435.69,452.64,439.57,452.64Z"/><path d="M453.25,449.52l2-.57a4.68,4.68,0,0,0,4.75,3.8c2.13,0,4.26-1.06,4.26-3.53,0-2-1.37-2.92-4-4l-1.52-.6c-3.26-1.33-4.59-3.23-4.59-5.4,0-2.92,2.47-4.94,5.73-4.94a5.76,5.76,0,0,1,5.89,4.14L464,439a3.94,3.94,0,0,0-3.95-2.77c-1.9,0-3.53,1-3.53,3,0,1.48.91,2.62,3.23,3.57l1.33.53c3.42,1.41,5.54,2.74,5.54,5.93,0,3.84-3.3,5.55-6.57,5.55C456.4,454.77,453.86,452.75,453.25,449.52Z"/><path d="M498.46,434.63h2.32v3.46a7.31,7.31,0,0,1,6.84-3.84c4.21,0,7.82,2.62,7.82,8.51v11.63h-2.31V443c0-4.52-2.7-6.65-6.12-6.65s-6.23,2.13-6.23,6.65v11.36h-2.32Z"/><path d="M519.29,444.47c0-6.61,4.82-10.22,9.76-10.22s10.07,3.65,9.42,11.1h-17a7.71,7.71,0,0,0,8.09,7.37,8.13,8.13,0,0,0,6.27-2.66l1.22,1.25a10,10,0,0,1-7.75,3.46C524.07,454.77,519.29,451.12,519.29,444.47Zm17.09-1a7.08,7.08,0,0,0-7.33-7.18,7.46,7.46,0,0,0-7.56,7.18Z"/><path d="M541.4,444.55a10,10,0,0,1,10.14-10.3,9.42,9.42,0,0,1,8.44,4.86l-1.82,1a7.37,7.37,0,0,0-6.54-3.76,8.13,8.13,0,0,0,0,16.26,7.37,7.37,0,0,0,6.54-3.76l1.82,1a9.41,9.41,0,0,1-8.44,4.87A10,10,0,0,1,541.4,444.55Z"/><path d="M562.41,444.47c0-6.61,4.83-10.22,9.77-10.22s10.07,3.65,9.42,11.1h-17a7.71,7.71,0,0,0,8.09,7.37,8.13,8.13,0,0,0,6.27-2.66l1.22,1.25a10,10,0,0,1-7.76,3.46C567.2,454.77,562.41,451.12,562.41,444.47Zm17.1-1a7.08,7.08,0,0,0-7.33-7.18,7.46,7.46,0,0,0-7.56,7.18Z"/><path d="M583.77,449.52l2-.57a4.68,4.68,0,0,0,4.75,3.8c2.13,0,4.26-1.06,4.26-3.53,0-2-1.37-2.92-3.95-4l-1.52-.6c-3.27-1.33-4.6-3.23-4.6-5.4,0-2.92,2.47-4.94,5.74-4.94a5.78,5.78,0,0,1,5.89,4.14l-1.87.61a3.94,3.94,0,0,0-4-2.77c-1.9,0-3.53,1-3.53,3,0,1.48.91,2.62,3.23,3.57l1.33.53c3.42,1.41,5.55,2.74,5.55,5.93,0,3.84-3.31,5.55-6.58,5.55C586.92,454.77,584.38,452.75,583.77,449.52Z"/><path d="M601,427.41h2.31v2.24H601Zm0,7.22h2.31v19.76H601Z"/><path d="M624.92,454.39v-4.22h-.11a8.58,8.58,0,0,1-7.91,4.6c-4.94,0-9.8-3.54-9.8-10.26s4.86-10.26,9.8-10.26a8.58,8.58,0,0,1,7.91,4.6h.11V427.41h2.32v27Zm-7.71-1.75c3.87,0,7.79-2.7,7.79-8.13s-3.92-8.13-7.79-8.13-7.79,2.66-7.79,8.13S613.33,452.64,617.21,452.64Z"/><path d="M631.08,444.51c0-6.73,4.86-10.26,9.8-10.26a8.58,8.58,0,0,1,7.91,4.6h.11v-4.22h2.32v19.76H648.9v-4.22h-.11a8.58,8.58,0,0,1-7.91,4.6C635.94,454.77,631.08,451.23,631.08,444.51Zm10.11,8.13c3.87,0,7.79-2.7,7.79-8.13s-3.92-8.13-7.79-8.13-7.79,2.66-7.79,8.13S637.31,452.64,641.19,452.64Z"/><path d="M672.88,454.39v-4.22h-.12a8.57,8.57,0,0,1-7.9,4.6c-4.94,0-9.8-3.54-9.8-10.26s4.86-10.26,9.8-10.26a8.57,8.57,0,0,1,7.9,4.6h.12V427.41h2.31v27Zm-7.72-1.75c3.88,0,7.79-2.7,7.79-8.13s-3.91-8.13-7.79-8.13-7.78,2.66-7.78,8.13S661.29,452.64,665.16,452.64Z"/><path d="M679,444.47c0-6.61,4.82-10.22,9.76-10.22s10.07,3.65,9.42,11.1h-17a7.71,7.71,0,0,0,8.09,7.37,8.13,8.13,0,0,0,6.27-2.66l1.22,1.25a10,10,0,0,1-7.75,3.46C683.82,454.77,679,451.12,679,444.47Zm17.09-1a7.08,7.08,0,0,0-7.33-7.18,7.46,7.46,0,0,0-7.56,7.18Z"/><path d="M700.39,449.52l2-.57a4.68,4.68,0,0,0,4.75,3.8c2.13,0,4.26-1.06,4.26-3.53,0-2-1.37-2.92-3.95-4l-1.52-.6c-3.27-1.33-4.6-3.23-4.6-5.4,0-2.92,2.47-4.94,5.74-4.94a5.78,5.78,0,0,1,5.89,4.14l-1.86.61a4,4,0,0,0-4-2.77c-1.9,0-3.53,1-3.53,3,0,1.48.91,2.62,3.23,3.57l1.33.53c3.42,1.41,5.55,2.74,5.55,5.93,0,3.84-3.31,5.55-6.58,5.55C703.54,454.77,701,452.75,700.39,449.52Z"/><path d="M762.47,454.39v-4.22h-.11a8.57,8.57,0,0,1-7.9,4.6c-4.94,0-9.81-3.54-9.81-10.26s4.87-10.26,9.81-10.26a8.57,8.57,0,0,1,7.9,4.6h.11V427.41h2.32v27Zm-7.71-1.75c3.88,0,7.79-2.7,7.79-8.13s-3.91-8.13-7.79-8.13S747,439,747,444.51,750.89,452.64,754.76,452.64Z"/><path d="M768.63,444.47c0-6.61,4.83-10.22,9.77-10.22s10.07,3.65,9.42,11.1h-17a7.71,7.71,0,0,0,8.09,7.37,8.14,8.14,0,0,0,6.27-2.66l1.21,1.25a9.93,9.93,0,0,1-7.75,3.46C773.42,454.77,768.63,451.12,768.63,444.47Zm17.1-1a7.08,7.08,0,0,0-7.33-7.18,7.46,7.46,0,0,0-7.56,7.18Z"/><path d="M821.33,451V436.57h-2.55v-1.94h2.55v-5.05h2.32v5.05h3.84v1.94h-3.84v14a1.75,1.75,0,0,0,2,2,4.63,4.63,0,0,0,1.79-.38v1.9a4.12,4.12,0,0,1-2.28.57C822.85,454.62,821.33,453.51,821.33,451Z"/><path d="M830.37,444.51a10.19,10.19,0,1,1,10.19,10.26A10,10,0,0,1,830.37,444.51Zm10.19,8.13a8.13,8.13,0,1,0-7.87-8.13A7.75,7.75,0,0,0,840.56,452.64Z"/><path d="M871.45,454.39v-4.22h-.11a8.58,8.58,0,0,1-7.91,4.6c-4.94,0-9.8-3.54-9.8-10.26s4.86-10.26,9.8-10.26a8.58,8.58,0,0,1,7.91,4.6h.11V427.41h2.32v27Zm-7.71-1.75c3.87,0,7.79-2.7,7.79-8.13s-3.92-8.13-7.79-8.13S856,439,856,444.51,859.86,452.64,863.74,452.64Z"/><path d="M877.61,444.51a10.18,10.18,0,1,1,10.18,10.26A10,10,0,0,1,877.61,444.51Zm10.18,8.13a8.13,8.13,0,1,0-7.86-8.13A7.76,7.76,0,0,0,887.79,452.64Z"/><path d="M900.1,449.52l2-.57a4.68,4.68,0,0,0,4.75,3.8c2.13,0,4.25-1.06,4.25-3.53,0-2-1.37-2.92-4-4l-1.52-.6c-3.27-1.33-4.6-3.23-4.6-5.4,0-2.92,2.47-4.94,5.74-4.94a5.77,5.77,0,0,1,5.89,4.14l-1.86.61a3.94,3.94,0,0,0-4-2.77c-1.9,0-3.54,1-3.54,3,0,1.48.92,2.62,3.23,3.57l1.33.53c3.42,1.41,5.55,2.74,5.55,5.93,0,3.84-3.31,5.55-6.57,5.55C903.26,454.77,900.71,452.75,900.1,449.52Z"/><path d="M945.32,427.41h2.31v27h-2.31Z"/><path d="M951.47,444.51a10.19,10.19,0,1,1,10.19,10.26A10,10,0,0,1,951.47,444.51Zm10.19,8.13a8.13,8.13,0,1,0-7.87-8.13A7.75,7.75,0,0,0,961.66,452.64Z"/><path d="M974,449.52l2-.57a4.68,4.68,0,0,0,4.75,3.8c2.13,0,4.26-1.06,4.26-3.53,0-2-1.37-2.92-4-4l-1.52-.6c-3.27-1.33-4.6-3.23-4.6-5.4,0-2.92,2.47-4.94,5.74-4.94a5.78,5.78,0,0,1,5.89,4.14l-1.87.61a3.94,3.94,0,0,0-3.95-2.77c-1.9,0-3.53,1-3.53,3,0,1.48.91,2.62,3.23,3.57l1.33.53c3.42,1.41,5.55,2.74,5.55,5.93,0,3.84-3.31,5.55-6.58,5.55C977.12,454.77,974.58,452.75,974,449.52Z"/><path d="M0,495.13l2-.57a4.68,4.68,0,0,0,4.75,3.79c2.13,0,4.26-1.06,4.26-3.53,0-2-1.37-2.92-3.95-4l-1.52-.6C2.28,488.86,1,487,1,484.79c0-2.92,2.47-4.94,5.74-4.94A5.78,5.78,0,0,1,12.58,484l-1.87.61a3.94,3.94,0,0,0-4-2.77c-1.9,0-3.53,1-3.53,3,0,1.48.91,2.62,3.23,3.57l1.33.53c3.42,1.41,5.55,2.74,5.55,5.93,0,3.84-3.31,5.55-6.58,5.55C3.15,500.37.61,498.35,0,495.13Z"/><path d="M16.23,490.07c0-6.61,4.82-10.22,9.76-10.22s10.07,3.65,9.42,11.1h-17a7.71,7.71,0,0,0,8.09,7.37,8.13,8.13,0,0,0,6.27-2.66L34,496.91a10,10,0,0,1-7.75,3.46C21,500.37,16.23,496.72,16.23,490.07Zm17.09-1A7.08,7.08,0,0,0,26,481.9a7.46,7.46,0,0,0-7.56,7.18Z"/><path d="M38.34,490.15a10,10,0,0,1,10.15-10.3,9.39,9.39,0,0,1,8.43,4.87l-1.82,1A7.37,7.37,0,0,0,48.56,482a8.13,8.13,0,0,0,0,16.26,7.37,7.37,0,0,0,6.54-3.76l1.82,1a9.4,9.4,0,0,1-8.43,4.86A10,10,0,0,1,38.34,490.15Z"/><path d="M62.36,496.64V482.17H59.81v-1.94h2.55v-5.05h2.31v5.05h3.84v1.94H64.67v14a1.76,1.76,0,0,0,2,2,4.66,4.66,0,0,0,1.79-.38v1.9a4.14,4.14,0,0,1-2.28.57C63.88,500.22,62.36,499.11,62.36,496.64Z"/><path d="M71.4,490.11a10.19,10.19,0,1,1,10.18,10.26A10,10,0,0,1,71.4,490.11Zm10.18,8.13a8.13,8.13,0,1,0-7.86-8.13A7.76,7.76,0,0,0,81.58,498.24Z"/><path d="M95.61,480.23h2.31v4.6a6.44,6.44,0,0,1,6.43-5,3.42,3.42,0,0,1,1,.12v2.16a4,4,0,0,0-1-.11c-3.61,0-6.46,2.85-6.46,7.48V500H95.61Z"/><path d="M107.69,490.07c0-6.61,4.83-10.22,9.77-10.22s10.06,3.65,9.42,11.1h-17a7.72,7.72,0,0,0,8.1,7.37,8.16,8.16,0,0,0,6.27-2.66l1.21,1.25a9.93,9.93,0,0,1-7.75,3.46C112.48,500.37,107.69,496.72,107.69,490.07Zm17.1-1a7.08,7.08,0,0,0-7.33-7.18,7.47,7.47,0,0,0-7.57,7.18Z"/><path d="M129.05,495.13l2-.57a4.68,4.68,0,0,0,4.75,3.79c2.13,0,4.25-1.06,4.25-3.53,0-2-1.36-2.92-3.95-4l-1.52-.6c-3.26-1.33-4.59-3.23-4.59-5.4,0-2.92,2.47-4.94,5.73-4.94a5.76,5.76,0,0,1,5.89,4.14l-1.86.61a3.94,3.94,0,0,0-3.95-2.77c-1.9,0-3.53,1-3.53,3,0,1.48.91,2.62,3.22,3.57l1.33.53c3.42,1.41,5.55,2.74,5.55,5.93,0,3.84-3.3,5.55-6.57,5.55C132.2,500.37,129.65,498.35,129.05,495.13Z"/><path d="M171.37,500v-4.22h-.11a8.57,8.57,0,0,1-7.9,4.6c-4.94,0-9.8-3.53-9.8-10.26s4.86-10.26,9.8-10.26a8.57,8.57,0,0,1,7.9,4.6h.11V473h2.32v27Zm-7.71-1.75c3.88,0,7.79-2.7,7.79-8.13s-3.91-8.13-7.79-8.13-7.79,2.66-7.79,8.13S159.79,498.24,163.66,498.24Z"/><path d="M177.53,490.07c0-6.61,4.83-10.22,9.77-10.22s10.07,3.65,9.42,11.1h-17a7.71,7.71,0,0,0,8.09,7.37,8.14,8.14,0,0,0,6.27-2.66l1.21,1.25a9.93,9.93,0,0,1-7.75,3.46C182.32,500.37,177.53,496.72,177.53,490.07Zm17.1-1a7.08,7.08,0,0,0-7.33-7.18,7.46,7.46,0,0,0-7.56,7.18Z"/><path d="M208.88,473h2.32v27h-2.32Z"/><path d="M215,490.11c0-6.72,4.86-10.26,9.8-10.26a8.57,8.57,0,0,1,7.9,4.6h.12v-4.22h2.31V500h-2.31v-4.22h-.12a8.57,8.57,0,0,1-7.9,4.6C219.9,500.37,215,496.84,215,490.11Zm10.1,8.13c3.88,0,7.79-2.7,7.79-8.13S229,482,225.14,482s-7.78,2.66-7.78,8.13S221.27,498.24,225.14,498.24Z"/><path d="M248.25,480.23h2.32v4.22h.11a8.57,8.57,0,0,1,7.9-4.6c4.94,0,9.81,3.54,9.81,10.26s-4.87,10.26-9.81,10.26a8.57,8.57,0,0,1-7.9-4.6h-.11v11.44h-2.32Zm10,18c3.88,0,7.79-2.66,7.79-8.13s-3.91-8.13-7.79-8.13-7.79,2.7-7.79,8.13S254.4,498.24,258.28,498.24Z"/><path d="M271.28,490.11a10.18,10.18,0,1,1,10.18,10.26A10,10,0,0,1,271.28,490.11Zm10.18,8.13a8.13,8.13,0,1,0-7.86-8.13A7.76,7.76,0,0,0,281.46,498.24Z"/><path d="M297.8,473v11.44h.12a8.56,8.56,0,0,1,7.9-4.6c4.94,0,9.8,3.54,9.8,10.26s-4.86,10.26-9.8,10.26a8.56,8.56,0,0,1-7.9-4.6h-.12V500h-2.32V473Zm7.71,25.23c3.88,0,7.79-2.66,7.79-8.13s-3.91-8.13-7.79-8.13-7.78,2.7-7.78,8.13S301.64,498.24,305.51,498.24Z"/><path d="M319.46,473h2.32v27h-2.32Z"/><path d="M325.62,490.11c0-6.72,4.86-10.26,9.8-10.26a8.57,8.57,0,0,1,7.9,4.6h.12v-4.22h2.31V500h-2.31v-4.22h-.12a8.57,8.57,0,0,1-7.9,4.6C330.48,500.37,325.62,496.84,325.62,490.11Zm10.1,8.13c3.88,0,7.79-2.7,7.79-8.13S339.6,482,335.72,482s-7.78,2.66-7.78,8.13S331.85,498.24,335.72,498.24Z"/><path d="M349.6,490.15a10,10,0,0,1,10.14-10.3,9.38,9.38,0,0,1,8.43,4.87l-1.82,1a7.35,7.35,0,0,0-6.53-3.76,8.13,8.13,0,0,0,0,16.26,7.35,7.35,0,0,0,6.53-3.76l1.82,1a9.39,9.39,0,0,1-8.43,4.86A10,10,0,0,1,349.6,490.15Z"/><path d="M372,473h2.31v2.24H372Zm0,7.22h2.31V500H372Z"/><path d="M378.17,490.11a10.19,10.19,0,1,1,10.18,10.26A10,10,0,0,1,378.17,490.11Zm10.18,8.13a8.13,8.13,0,1,0-7.86-8.13A7.76,7.76,0,0,0,388.35,498.24Zm2.4-26.37h2.13l-3.42,5.85h-2.09Z"/><path d="M402.38,480.23h2.31v3.46a7.32,7.32,0,0,1,6.84-3.84c4.22,0,7.83,2.62,7.83,8.51V500H417V488.63c0-4.52-2.69-6.65-6.11-6.65s-6.24,2.13-6.24,6.65V500h-2.31Z"/><path d="M432.05,486.5a13.43,13.43,0,0,1,13.64-13.87,12.56,12.56,0,0,1,10.38,5L454.32,479a10.38,10.38,0,0,0-8.55-4.07,11.59,11.59,0,0,0,0,23.18,10.36,10.36,0,0,0,8.51-4.07l1.75,1.33a12.49,12.49,0,0,1-10.34,5A13.46,13.46,0,0,1,432.05,486.5Z"/><path d="M458.39,490.11c0-6.72,4.86-10.26,9.8-10.26a8.56,8.56,0,0,1,7.9,4.6h.12v-4.22h2.32V500h-2.32v-4.22h-.12a8.56,8.56,0,0,1-7.9,4.6C463.25,500.37,458.39,496.84,458.39,490.11Zm10.11,8.13c3.87,0,7.78-2.7,7.78-8.13S472.37,482,468.5,482s-7.79,2.66-7.79,8.13S464.62,498.24,468.5,498.24Z"/><path d="M483.32,473h2.31v27h-2.31Z"/><path d="M507.29,500v-4.22h-.11a8.57,8.57,0,0,1-7.9,4.6c-4.94,0-9.81-3.53-9.81-10.26s4.87-10.26,9.81-10.26a8.57,8.57,0,0,1,7.9,4.6h.11V473h2.32v27Zm-7.71-1.75c3.88,0,7.79-2.7,7.79-8.13s-3.91-8.13-7.79-8.13-7.79,2.66-7.79,8.13S495.7,498.24,499.58,498.24Z"/><path d="M513.45,490.07c0-6.61,4.83-10.22,9.77-10.22s10.06,3.65,9.42,11.1h-17a7.72,7.72,0,0,0,8.1,7.37,8.14,8.14,0,0,0,6.27-2.66l1.21,1.25a9.93,9.93,0,0,1-7.75,3.46C518.24,500.37,513.45,496.72,513.45,490.07Zm17.1-1a7.08,7.08,0,0,0-7.33-7.18,7.47,7.47,0,0,0-7.57,7.18Z"/><path d="M536.52,480.23h2.31v3.46a7.32,7.32,0,0,1,6.84-3.84c4.22,0,7.83,2.62,7.83,8.51V500h-2.32V488.63c0-4.52-2.7-6.65-6.12-6.65s-6.23,2.13-6.23,6.65V500h-2.31ZM543,473c2.32,0,2.85,2.36,4.45,2.36.87,0,1.4-.72,1.4-1.67h1.83c0,2.43-1.41,3.49-2.93,3.49-2.35,0-2.88-2.39-4.48-2.39a1.48,1.48,0,0,0-1.41,1.67h-1.82C540.05,474.08,541.49,473,543,473Z"/><path d="M557.34,490.11c0-6.72,4.86-10.26,9.8-10.26a8.58,8.58,0,0,1,7.91,4.6h.11v-4.22h2.32V500h-2.32v-4.22h-.11a8.58,8.58,0,0,1-7.91,4.6C562.2,500.37,557.34,496.84,557.34,490.11Zm10.11,8.13c3.87,0,7.79-2.7,7.79-8.13s-3.92-8.13-7.79-8.13-7.79,2.66-7.79,8.13S563.57,498.24,567.45,498.24Z"/><path d="M581.36,498.93a1.44,1.44,0,1,1,1.44,1.44A1.4,1.4,0,0,1,581.36,498.93Z"/><path d="M7.64,566.45H.19v-2.24H17.44v2.24H10v24.74H7.64Z"/><path d="M16.53,581.27c0-6.61,4.83-10.22,9.76-10.22s10.07,3.65,9.43,11.1h-17a7.72,7.72,0,0,0,8.1,7.37,8.16,8.16,0,0,0,6.27-2.66l1.21,1.25a9.93,9.93,0,0,1-7.75,3.46C21.32,591.57,16.53,587.92,16.53,581.27Zm17.1-1a7.09,7.09,0,0,0-7.34-7.18,7.47,7.47,0,0,0-7.56,7.18Z"/><path d="M51,564.21h2.32v2.24H51Zm0,7.22h2.32v19.76H51Z"/><path d="M58.13,571.43h2.32v3.46a7.3,7.3,0,0,1,6.83-3.84c4.22,0,7.83,2.62,7.83,8.51v11.63H72.79V579.83c0-4.52-2.69-6.65-6.11-6.65s-6.23,2.13-6.23,6.65v11.36H58.13Z"/><path d="M76.67,571.43H79.1l7.07,16.8,7.07-16.8h2.43l-8.44,19.76H85.11Z"/><path d="M99.13,564.21h2.32v2.24H99.13Zm0,7.22h2.32v19.76H99.13Z"/><path d="M107.83,587.85V573.37h-2.54v-1.94h2.54v-5h2.32v5H114v1.94h-3.84v14a1.76,1.76,0,0,0,2,2,4.63,4.63,0,0,0,1.79-.38v1.9a4.12,4.12,0,0,1-2.28.57C109.35,591.42,107.83,590.31,107.83,587.85Z"/><path d="M116.88,581.31a10.18,10.18,0,1,1,10.18,10.26A10,10,0,0,1,116.88,581.31Zm10.18,8.13a8.13,8.13,0,1,0-7.87-8.13A7.75,7.75,0,0,0,127.06,589.44Z"/><path d="M151.56,581.31c0-6.72,4.86-10.26,9.8-10.26a8.57,8.57,0,0,1,7.9,4.6h.12v-4.22h2.32v19.76h-2.32V587h-.12a8.57,8.57,0,0,1-7.9,4.6C156.42,591.57,151.56,588,151.56,581.31Zm10.1,8.13c3.88,0,7.79-2.7,7.79-8.13s-3.91-8.13-7.79-8.13-7.78,2.66-7.78,8.13S157.79,589.44,161.66,589.44Z"/><path d="M187,581.31c0-6.72,4.87-10.26,9.8-10.26a8.58,8.58,0,0,1,7.91,4.6h.11v-4.22h2.32v19.76h-2.32V587h-.11a8.58,8.58,0,0,1-7.91,4.6C191.83,591.57,187,588,187,581.31Zm10.11,8.13c3.87,0,7.79-2.7,7.79-8.13s-3.92-8.13-7.79-8.13-7.79,2.66-7.79,8.13S193.19,589.44,197.07,589.44Z"/><path d="M210.94,581.35a10,10,0,0,1,10.14-10.3,9.41,9.41,0,0,1,8.44,4.87l-1.82,1a7.37,7.37,0,0,0-6.54-3.76,8.13,8.13,0,0,0,0,16.26,7.37,7.37,0,0,0,6.54-3.76l1.82,1a9.42,9.42,0,0,1-8.44,4.86A10,10,0,0,1,210.94,581.35Z"/><path d="M232.18,581.31a10.19,10.19,0,1,1,10.18,10.26A10,10,0,0,1,232.18,581.31Zm10.18,8.13a8.13,8.13,0,1,0-7.86-8.13A7.76,7.76,0,0,0,242.36,589.44Z"/><path d="M269.69,579.71c0-4-1.75-6.53-5.36-6.53s-5.62,2.58-5.62,6.53v11.48h-2.32V571.43h2.32v3.23a7,7,0,0,1,12.65.72,7,7,0,0,1,6.8-4.33c4.1,0,7.14,2.59,7.14,8.44v11.7H283V579.71c0-4-1.74-6.53-5.35-6.53s-5.63,2.58-5.63,6.53v11.48h-2.31Z"/><path d="M290.09,571.43h2.32v4.22h.11a8.59,8.59,0,0,1,7.91-4.6c4.94,0,9.8,3.54,9.8,10.26s-4.86,10.26-9.8,10.26a8.59,8.59,0,0,1-7.91-4.6h-.11v11.44h-2.32Zm10,18c3.88,0,7.79-2.66,7.79-8.13s-3.91-8.13-7.79-8.13-7.79,2.7-7.79,8.13S296.25,589.44,300.12,589.44Z"/><path d="M313.12,581.31c0-6.72,4.86-10.26,9.8-10.26a8.58,8.58,0,0,1,7.91,4.6h.11v-4.22h2.32v19.76h-2.32V587h-.11a8.58,8.58,0,0,1-7.91,4.6C318,591.57,313.12,588,313.12,581.31Zm10.11,8.13c3.87,0,7.79-2.7,7.79-8.13s-3.92-8.13-7.79-8.13-7.79,2.66-7.79,8.13S319.35,589.44,323.23,589.44Z"/><path d="M338.05,571.43h2.32v3.46a7.3,7.3,0,0,1,6.84-3.84c4.21,0,7.82,2.62,7.82,8.51v11.63h-2.31V579.83c0-4.52-2.7-6.65-6.12-6.65s-6.23,2.13-6.23,6.65v11.36h-2.32Zm6.5-7.22c2.31,0,2.85,2.36,4.44,2.36a1.48,1.48,0,0,0,1.41-1.67h1.82c0,2.43-1.4,3.49-2.92,3.49-2.36,0-2.89-2.39-4.49-2.39-.87,0-1.4.72-1.4,1.67h-1.83C341.58,565.28,343,564.21,344.55,564.21Z"/><path d="M358.87,581.31c0-6.72,4.87-10.26,9.81-10.26a8.57,8.57,0,0,1,7.9,4.6h.11v-4.22H379v19.76h-2.32V587h-.11a8.57,8.57,0,0,1-7.9,4.6C363.74,591.57,358.87,588,358.87,581.31ZM369,589.44c3.88,0,7.79-2.7,7.79-8.13s-3.91-8.13-7.79-8.13-7.79,2.66-7.79,8.13S365.1,589.44,369,589.44Z"/><path d="M383.8,571.43h2.32V576a6.42,6.42,0,0,1,6.42-5,3.49,3.49,0,0,1,1,.12v2.16a4,4,0,0,0-1-.11c-3.61,0-6.46,2.85-6.46,7.48v10.49H383.8Z"/><path d="M410.7,579.71c0-4-1.74-6.53-5.35-6.53s-5.63,2.58-5.63,6.53v11.48H397.4V571.43h2.32v3.23a7,7,0,0,1,12.65.72,7,7,0,0,1,6.81-4.33c4.1,0,7.14,2.59,7.14,8.44v11.7H424V579.71c0-4-1.75-6.53-5.36-6.53s-5.62,2.58-5.62,6.53v11.48H410.7Z"/><path d="M430.16,581.27c0-6.61,4.83-10.22,9.77-10.22s10.06,3.65,9.42,11.1h-17a7.72,7.72,0,0,0,8.1,7.37,8.16,8.16,0,0,0,6.27-2.66l1.21,1.25a9.93,9.93,0,0,1-7.75,3.46C435,591.57,430.16,587.92,430.16,581.27Zm17.1-1a7.08,7.08,0,0,0-7.33-7.18,7.47,7.47,0,0,0-7.57,7.18Z"/><path d="M463.7,581.27c0-6.61,4.83-10.22,9.77-10.22s10.07,3.65,9.42,11.1h-17a7.71,7.71,0,0,0,8.09,7.37,8.14,8.14,0,0,0,6.27-2.66l1.21,1.25a9.93,9.93,0,0,1-7.75,3.46C468.49,591.57,463.7,587.92,463.7,581.27Zm17.1-1a7.08,7.08,0,0,0-7.33-7.18,7.46,7.46,0,0,0-7.56,7.18Z"/><path d="M486.77,571.43h2.31v3.46a7.32,7.32,0,0,1,6.84-3.84c4.22,0,7.83,2.62,7.83,8.51v11.63h-2.32V579.83c0-4.52-2.69-6.65-6.11-6.65s-6.24,2.13-6.24,6.65v11.36h-2.31Z"/><path d="M519,581.27c0-6.61,4.82-10.22,9.76-10.22s10.07,3.65,9.42,11.1h-17a7.71,7.71,0,0,0,8.09,7.37,8.13,8.13,0,0,0,6.27-2.66l1.22,1.25a10,10,0,0,1-7.75,3.46C523.8,591.57,519,587.92,519,581.27Zm17.09-1a7.08,7.08,0,0,0-7.33-7.18,7.46,7.46,0,0,0-7.56,7.18Z"/><path d="M540.37,586.33l2-.57a4.67,4.67,0,0,0,4.75,3.8c2.12,0,4.25-1.07,4.25-3.54,0-2-1.37-2.92-3.95-4l-1.52-.6c-3.27-1.33-4.6-3.23-4.6-5.4,0-2.92,2.47-4.94,5.74-4.94a5.78,5.78,0,0,1,5.89,4.14l-1.86.61a3.94,3.94,0,0,0-4-2.77c-1.9,0-3.54,1-3.54,3,0,1.48.91,2.62,3.23,3.57l1.33.53c3.42,1.41,5.55,2.74,5.55,5.93,0,3.84-3.31,5.55-6.57,5.55C543.53,591.57,541,589.56,540.37,586.33Z"/><path d="M558.76,587.85V573.37h-2.54v-1.94h2.54v-5h2.32v5h3.84v1.94h-3.84v14a1.76,1.76,0,0,0,2,2,4.62,4.62,0,0,0,1.78-.38v1.9a4.12,4.12,0,0,1-2.28.57C560.28,591.42,558.76,590.31,558.76,587.85Z"/><path d="M567.81,581.27c0-6.61,4.82-10.22,9.76-10.22s10.07,3.65,9.43,11.1H570a7.71,7.71,0,0,0,8.09,7.37,8.13,8.13,0,0,0,6.27-2.66l1.22,1.25a9.94,9.94,0,0,1-7.75,3.46C572.6,591.57,567.81,587.92,567.81,581.27Zm17.1-1a7.09,7.09,0,0,0-7.34-7.18,7.47,7.47,0,0,0-7.56,7.18Z"/><path d="M602.3,571.43h2.32v4.22h.11a8.57,8.57,0,0,1,7.9-4.6c4.94,0,9.81,3.54,9.81,10.26s-4.87,10.26-9.81,10.26a8.57,8.57,0,0,1-7.9-4.6h-.11v11.44H602.3Zm10,18c3.88,0,7.79-2.66,7.79-8.13s-3.91-8.13-7.79-8.13-7.79,2.7-7.79,8.13S608.46,589.44,612.33,589.44Z"/><path d="M626.28,571.43h2.32V576a6.42,6.42,0,0,1,6.42-5,3.42,3.42,0,0,1,1,.12v2.16a4,4,0,0,0-1-.11c-3.6,0-6.45,2.85-6.45,7.48v10.49h-2.32Z"/><path d="M638.36,581.31a10.19,10.19,0,1,1,10.18,10.26A10,10,0,0,1,638.36,581.31Zm10.18,8.13a8.13,8.13,0,1,0-7.86-8.13A7.76,7.76,0,0,0,648.54,589.44Z"/><path d="M661.62,581.35a10,10,0,0,1,10.14-10.3,9.41,9.41,0,0,1,8.44,4.87l-1.83,1a7.35,7.35,0,0,0-6.53-3.76,8.13,8.13,0,0,0,0,16.26,7.35,7.35,0,0,0,6.53-3.76l1.83,1a9.42,9.42,0,0,1-8.44,4.86A10,10,0,0,1,661.62,581.35Z"/><path d="M682.63,581.27c0-6.61,4.83-10.22,9.77-10.22s10.06,3.65,9.42,11.1h-17a7.72,7.72,0,0,0,8.1,7.37,8.14,8.14,0,0,0,6.27-2.66l1.21,1.25a9.93,9.93,0,0,1-7.75,3.46C687.42,591.57,682.63,587.92,682.63,581.27Zm17.1-1a7.08,7.08,0,0,0-7.33-7.18,7.47,7.47,0,0,0-7.57,7.18Z"/><path d="M704,586.33l2-.57a4.68,4.68,0,0,0,4.75,3.8c2.13,0,4.25-1.07,4.25-3.54,0-2-1.36-2.92-4-4l-1.52-.6c-3.26-1.33-4.59-3.23-4.59-5.4,0-2.92,2.47-4.94,5.73-4.94a5.76,5.76,0,0,1,5.89,4.14l-1.86.61a3.94,3.94,0,0,0-4-2.77c-1.9,0-3.53,1-3.53,3,0,1.48.91,2.62,3.23,3.57l1.33.53c3.42,1.41,5.54,2.74,5.54,5.93,0,3.84-3.3,5.55-6.57,5.55C707.14,591.57,704.59,589.56,704,586.33Z"/><path d="M720.21,581.31a10.19,10.19,0,1,1,10.19,10.26A10,10,0,0,1,720.21,581.31Zm10.19,8.13a8.13,8.13,0,1,0-7.87-8.13A7.75,7.75,0,0,0,730.4,589.44Z"/><path d="M762.87,591l-8.36-19.61H757l7.06,16.8,7.07-16.8h2.43l-8.43,19.76-3.19,7.22h-2.28Z"/><path d="M805.27,591.19V587h-.12a8.57,8.57,0,0,1-7.9,4.6c-4.94,0-9.8-3.53-9.8-10.26s4.86-10.26,9.8-10.26a8.57,8.57,0,0,1,7.9,4.6h.12V564.21h2.31v27Zm-7.72-1.75c3.88,0,7.79-2.7,7.79-8.13s-3.91-8.13-7.79-8.13-7.78,2.66-7.78,8.13S793.68,589.44,797.55,589.44Z"/><path d="M811.43,581.27c0-6.61,4.82-10.22,9.76-10.22s10.07,3.65,9.42,11.1h-17a7.71,7.71,0,0,0,8.09,7.37,8.13,8.13,0,0,0,6.27-2.66l1.22,1.25a10,10,0,0,1-7.75,3.46C816.21,591.57,811.43,587.92,811.43,581.27Zm17.09-1a7.08,7.08,0,0,0-7.33-7.18,7.46,7.46,0,0,0-7.56,7.18Z"/><path d="M845.92,564.21h2.32v27h-2.32Z"/><path d="M852.07,581.31c0-6.72,4.87-10.26,9.81-10.26a8.57,8.57,0,0,1,7.9,4.6h.11v-4.22h2.32v19.76h-2.32V587h-.11a8.57,8.57,0,0,1-7.9,4.6C856.94,591.57,852.07,588,852.07,581.31Zm10.11,8.13c3.88,0,7.79-2.7,7.79-8.13s-3.91-8.13-7.79-8.13-7.79,2.66-7.79,8.13S858.3,589.44,862.18,589.44Z"/><path d="M901.73,579.71c0-4-1.75-6.53-5.36-6.53s-5.62,2.58-5.62,6.53v11.48h-2.32V571.43h2.32v3.23a7,7,0,0,1,12.65.72,7,7,0,0,1,6.8-4.33c4.1,0,7.14,2.59,7.14,8.44v11.7H915V579.71c0-4-1.74-6.53-5.35-6.53s-5.63,2.58-5.63,6.53v11.48h-2.31Z"/><path d="M921.18,581.31c0-6.72,4.87-10.26,9.81-10.26a8.57,8.57,0,0,1,7.9,4.6H939v-4.22h2.32v19.76H939V587h-.11a8.57,8.57,0,0,1-7.9,4.6C926.05,591.57,921.18,588,921.18,581.31Zm10.11,8.13c3.88,0,7.79-2.7,7.79-8.13s-3.91-8.13-7.79-8.13-7.79,2.66-7.79,8.13S927.41,589.44,931.29,589.44Z"/><path d="M946.11,571.43h2.32v3.46a7.31,7.31,0,0,1,6.84-3.84c4.21,0,7.82,2.62,7.82,8.51v11.63h-2.31V579.83c0-4.52-2.7-6.65-6.12-6.65s-6.23,2.13-6.23,6.65v11.36h-2.32Z"/><path d="M966.93,581.31a10.19,10.19,0,1,1,10.19,10.26A10,10,0,0,1,966.93,581.31Zm10.19,8.13a8.13,8.13,0,1,0-7.87-8.13A7.75,7.75,0,0,0,977.12,589.44Z"/><path d="M18,636.79v-4.22H17.9a8.58,8.58,0,0,1-7.91,4.6c-4.94,0-9.8-3.53-9.8-10.26s4.86-10.26,9.8-10.26a8.58,8.58,0,0,1,7.91,4.6H18V609.81h2.32v27ZM10.3,635c3.87,0,7.79-2.7,7.79-8.13s-3.92-8.13-7.79-8.13-7.79,2.66-7.79,8.13S6.42,635,10.3,635Z"/><path d="M24.17,626.87c0-6.61,4.82-10.22,9.76-10.22s10.07,3.65,9.42,11.1h-17a7.71,7.71,0,0,0,8.09,7.37,8.13,8.13,0,0,0,6.27-2.66L42,633.71a9.94,9.94,0,0,1-7.75,3.46C29,637.17,24.17,633.52,24.17,626.87Zm17.1-1a7.09,7.09,0,0,0-7.34-7.18,7.47,7.47,0,0,0-7.56,7.18Z"/><path d="M61.06,626.87c0-6.61,4.82-10.22,9.76-10.22s10.07,3.65,9.43,11.1h-17a7.72,7.72,0,0,0,8.1,7.37,8.12,8.12,0,0,0,6.26-2.66l1.22,1.25a9.94,9.94,0,0,1-7.75,3.46C65.85,637.17,61.06,633.52,61.06,626.87Zm17.1-1a7.09,7.09,0,0,0-7.34-7.18,7.47,7.47,0,0,0-7.56,7.18Z"/><path d="M84.12,609.81h2.32v27H84.12Z"/><path class="cls-2" d="M105.55,609.81h9.54c5.85,0,9.65,3.65,9.65,9.16s-3.8,9.16-9.65,9.16h-4.33v8.66h-5.21Zm9.08,13.53c2.81,0,4.83-1.22,4.83-4.37s-2-4.37-4.83-4.37h-3.87v8.74Z"/><path class="cls-2" d="M127.86,617H133v5.13c.68-3,2.62-5.51,6.19-5.51a5.48,5.48,0,0,1,1.33.15v4.87a7.12,7.12,0,0,0-1.29-.12c-3.84,0-6.23,2.66-6.23,6.61v8.63h-5.09Z"/><path class="cls-2" d="M141.84,626.91c0-6.69,5.24-10.26,10.41-10.26s10.41,3.57,10.41,10.26-5.28,10.26-10.41,10.26S141.84,633.6,141.84,626.91Zm10.41,5.66a5.67,5.67,0,1,0-5.4-5.66A5.34,5.34,0,0,0,152.25,632.57Z"/><path class="cls-2" d="M173.42,609a7.13,7.13,0,0,1,3.53.76v4a4.76,4.76,0,0,0-2.2-.42c-1.94,0-2.89,1.06-2.89,3V617H177v4.07h-5.09v15.69h-5.09V621.1h-2.51V617h2.51v-1.29C166.77,609.93,170.79,609,173.42,609Z"/><path class="cls-2" d="M178.17,626.91a9.8,9.8,0,0,1,10-10.26c5,0,10.71,3.53,9.61,12.24H183c.72,2.69,3.08,4.1,6,4.1a7.42,7.42,0,0,0,5.09-1.79l2.32,2.47a10,10,0,0,1-8,3.5C183,637.17,178.17,633.48,178.17,626.91Zm15.08-1.75a4.78,4.78,0,0,0-5.05-4.22,5.23,5.23,0,0,0-5.28,4.22Z"/><path class="cls-2" d="M214.78,609.81h9.53c5.85,0,9.65,3.65,9.65,9.16s-3.8,9.16-9.65,9.16H220v8.66h-5.2Zm9.08,13.53c2.81,0,4.82-1.22,4.82-4.37s-2-4.37-4.82-4.37H220v8.74Z"/><path class="cls-2" d="M237.08,609.81h5.09v4.49h-5.09Zm0,7.22h5.09v19.76h-5.09Z"/><path class="cls-2" d="M245.1,626.91c0-6.69,5.24-10.26,10.41-10.26s10.41,3.57,10.41,10.26-5.28,10.26-10.41,10.26S245.1,633.6,245.1,626.91Zm10.41,5.66a5.67,5.67,0,1,0-5.39-5.66A5.34,5.34,0,0,0,255.51,632.57Z"/><path class="cls-2" d="M268.85,609.81h5.09v27h-5.09Z"/><path class="cls-2" d="M276.87,626.91c0-6.69,5.24-10.26,10.41-10.26s10.41,3.57,10.41,10.26-5.28,10.26-10.41,10.26S276.87,633.6,276.87,626.91Zm10.41,5.66a5.67,5.67,0,1,0-5.4-5.66A5.34,5.34,0,0,0,287.28,632.57Z"/><path d="M314.09,627a10,10,0,0,1,10.14-10.3,9.41,9.41,0,0,1,8.44,4.87l-1.83,1a7.35,7.35,0,0,0-6.53-3.76,8.13,8.13,0,0,0,0,16.26,7.35,7.35,0,0,0,6.53-3.76l1.83,1a9.42,9.42,0,0,1-8.44,4.86A10,10,0,0,1,314.09,627Z"/><path d="M335.33,626.91a10.18,10.18,0,1,1,10.18,10.26A10,10,0,0,1,335.33,626.91ZM345.51,635a8.13,8.13,0,1,0-7.86-8.13A7.76,7.76,0,0,0,345.51,635Z"/><path d="M372.83,625.31c0-3.95-1.75-6.53-5.36-6.53s-5.62,2.58-5.62,6.53v11.48h-2.32V617h2.32v3.23a7,7,0,0,1,12.65.72,7,7,0,0,1,6.8-4.33c4.11,0,7.15,2.58,7.15,8.44v11.7h-2.32V625.31c0-3.95-1.75-6.53-5.36-6.53s-5.62,2.58-5.62,6.53v11.48h-2.32Z"/><path d="M392.29,626.91a10.18,10.18,0,1,1,10.18,10.26A10,10,0,0,1,392.29,626.91ZM402.47,635a8.13,8.13,0,1,0-7.86-8.13A7.76,7.76,0,0,0,402.47,635Z"/><path d="M430.32,626.91c0-6.73,4.86-10.26,9.8-10.26a8.58,8.58,0,0,1,7.91,4.6h.11V617h2.32v19.76h-2.32v-4.22H448a8.58,8.58,0,0,1-7.91,4.6C435.18,637.17,430.32,633.64,430.32,626.91ZM440.43,635c3.87,0,7.79-2.7,7.79-8.13s-3.92-8.13-7.79-8.13-7.79,2.66-7.79,8.13S436.55,635,440.43,635Z"/><path d="M455.25,609.81h2.32v27h-2.32Z"/><path d="M461.4,627a10,10,0,0,1,10.15-10.3,9.39,9.39,0,0,1,8.43,4.87l-1.82,1a7.37,7.37,0,0,0-6.54-3.76,8.13,8.13,0,0,0,0,16.26,7.37,7.37,0,0,0,6.54-3.76l1.82,1a9.4,9.4,0,0,1-8.43,4.86A10,10,0,0,1,461.4,627Z"/><path d="M482.65,626.91c0-6.73,4.86-10.26,9.8-10.26a8.57,8.57,0,0,1,7.9,4.6h.12V617h2.31v19.76h-2.31v-4.22h-.12a8.57,8.57,0,0,1-7.9,4.6C487.51,637.17,482.65,633.64,482.65,626.91Zm10.1,8.13c3.88,0,7.79-2.7,7.79-8.13s-3.91-8.13-7.79-8.13-7.79,2.66-7.79,8.13S488.88,635,492.75,635Z"/><path d="M507.57,609.81h2.32v27h-2.32Z"/><path d="M531.55,636.79v-4.22h-.11a8.58,8.58,0,0,1-7.91,4.6c-4.94,0-9.8-3.53-9.8-10.26s4.86-10.26,9.8-10.26a8.58,8.58,0,0,1,7.91,4.6h.11V609.81h2.32v27ZM523.84,635c3.87,0,7.79-2.7,7.79-8.13s-3.92-8.13-7.79-8.13-7.79,2.66-7.79,8.13S520,635,523.84,635Z"/><path d="M537.71,626.87c0-6.61,4.82-10.22,9.76-10.22s10.07,3.65,9.43,11.1h-17a7.72,7.72,0,0,0,8.1,7.37,8.12,8.12,0,0,0,6.26-2.66l1.22,1.25a9.94,9.94,0,0,1-7.75,3.46C542.5,637.17,537.71,633.52,537.71,626.87Zm17.1-1a7.09,7.09,0,0,0-7.34-7.18,7.47,7.47,0,0,0-7.56,7.18Z"/><path d="M575.55,609.81h2.32v2.24h-2.32Zm0,7.22h2.32v19.76h-2.32Z"/><path d="M596,625.31c0-3.95-1.74-6.53-5.35-6.53s-5.63,2.58-5.63,6.53v11.48h-2.31V617H585v3.23a7.05,7.05,0,0,1,12.66.72,7,7,0,0,1,6.8-4.33c4.1,0,7.14,2.58,7.14,8.44v11.7h-2.32V625.31c0-3.95-1.75-6.53-5.36-6.53s-5.62,2.58-5.62,6.53v11.48H596Z"/><path d="M616.36,617h2.32v4.22h.11a8.58,8.58,0,0,1,7.91-4.6c4.94,0,9.8,3.53,9.8,10.26s-4.86,10.26-9.8,10.26a8.58,8.58,0,0,1-7.91-4.6h-.11V644h-2.32Zm10,18c3.88,0,7.79-2.66,7.79-8.13s-3.91-8.13-7.79-8.13-7.79,2.7-7.79,8.13S622.52,635,626.39,635Z"/><path d="M657.32,636.79H655v-3.46a7.32,7.32,0,0,1-6.84,3.84c-4.22,0-7.83-2.62-7.83-8.51V617h2.32v11.36c0,4.52,2.69,6.65,6.11,6.65s6.24-2.13,6.24-6.65V617h2.31Z"/><path d="M662.11,609.81h2.32v27h-2.32Z"/><path d="M668.08,631.93l2-.58a4.68,4.68,0,0,0,4.75,3.8c2.13,0,4.26-1.06,4.26-3.53,0-2-1.37-2.92-4-4l-1.52-.6c-3.27-1.33-4.6-3.23-4.6-5.4,0-2.92,2.47-4.94,5.74-4.94a5.78,5.78,0,0,1,5.89,4.14l-1.87.61a3.94,3.94,0,0,0-3.95-2.77c-1.9,0-3.53,1-3.53,3,0,1.48.91,2.62,3.23,3.57l1.33.53c3.42,1.41,5.55,2.74,5.55,5.93,0,3.84-3.31,5.55-6.58,5.55C671.23,637.17,668.69,635.15,668.08,631.93Z"/><path d="M684.31,626.91c0-6.73,4.86-10.26,9.8-10.26a8.57,8.57,0,0,1,7.9,4.6h.11V617h2.32v19.76h-2.32v-4.22H702a8.57,8.57,0,0,1-7.9,4.6C689.17,637.17,684.31,633.64,684.31,626.91Zm10.1,8.13c3.88,0,7.79-2.7,7.79-8.13s-3.91-8.13-7.79-8.13-7.79,2.66-7.79,8.13S690.54,635,694.41,635Z"/><path d="M709.23,617h2.32v4.6a6.42,6.42,0,0,1,6.42-5,3.49,3.49,0,0,1,1,.12v2.16a3.61,3.61,0,0,0-1-.11c-3.61,0-6.46,2.85-6.46,7.48v10.49h-2.32Z"/><path d="M750.15,625.31c0-3.95-1.75-6.53-5.36-6.53s-5.62,2.58-5.62,6.53v11.48h-2.32V617h2.32v3.23a7,7,0,0,1,12.65.72,7,7,0,0,1,6.8-4.33c4.11,0,7.15,2.58,7.15,8.44v11.7h-2.32V625.31c0-3.95-1.75-6.53-5.36-6.53s-5.62,2.58-5.62,6.53v11.48h-2.32Z"/><path d="M769.61,626.87c0-6.61,4.82-10.22,9.76-10.22s10.07,3.65,9.43,11.1h-17a7.72,7.72,0,0,0,8.1,7.37,8.12,8.12,0,0,0,6.26-2.66l1.22,1.25a9.94,9.94,0,0,1-7.75,3.46C774.4,637.17,769.61,633.52,769.61,626.87Zm17.1-1a7.09,7.09,0,0,0-7.34-7.18,7.47,7.47,0,0,0-7.56,7.18Z"/><path d="M791.72,627a10,10,0,0,1,10.15-10.3,9.39,9.39,0,0,1,8.43,4.87l-1.82,1a7.37,7.37,0,0,0-6.54-3.76,8.13,8.13,0,0,0,0,16.26,7.37,7.37,0,0,0,6.54-3.76l1.82,1a9.4,9.4,0,0,1-8.43,4.86A10,10,0,0,1,791.72,627Z"/><path d="M813,626.91c0-6.73,4.86-10.26,9.8-10.26a8.57,8.57,0,0,1,7.9,4.6h.12V617h2.31v19.76h-2.31v-4.22h-.12a8.57,8.57,0,0,1-7.9,4.6C817.83,637.17,813,633.64,813,626.91Zm10.1,8.13c3.88,0,7.79-2.7,7.79-8.13s-3.91-8.13-7.79-8.13-7.79,2.66-7.79,8.13S819.2,635,823.07,635Z"/><path d="M837.89,617h2.32v3.46a7.31,7.31,0,0,1,6.84-3.84c4.22,0,7.83,2.62,7.83,8.51v11.63h-2.32V625.43c0-4.52-2.7-6.65-6.12-6.65s-6.23,2.13-6.23,6.65v11.36h-2.32Z"/><path d="M859.67,609.81H862v2.24h-2.32Zm0,7.22H862v19.76h-2.32Z"/><path d="M865.63,631.93l2-.58a4.68,4.68,0,0,0,4.75,3.8c2.13,0,4.25-1.06,4.25-3.53,0-2-1.36-2.92-3.95-4l-1.52-.6c-3.27-1.33-4.6-3.23-4.6-5.4,0-2.92,2.47-4.94,5.74-4.94a5.76,5.76,0,0,1,5.89,4.14l-1.86.61a3.94,3.94,0,0,0-4-2.77c-1.9,0-3.54,1-3.54,3,0,1.48.92,2.62,3.23,3.57l1.33.53c3.42,1.41,5.55,2.74,5.55,5.93,0,3.84-3.3,5.55-6.57,5.55C868.79,637.17,866.24,635.15,865.63,631.93Z"/><path d="M896.11,625.31c0-3.95-1.75-6.53-5.36-6.53s-5.62,2.58-5.62,6.53v11.48h-2.32V617h2.32v3.23a7,7,0,0,1,12.65.72,7,7,0,0,1,6.8-4.33c4.1,0,7.14,2.58,7.14,8.44v11.7h-2.31V625.31c0-3.95-1.75-6.53-5.36-6.53s-5.62,2.58-5.62,6.53v11.48h-2.32Z"/><path d="M915.57,626.91a10.18,10.18,0,1,1,10.18,10.26A10,10,0,0,1,915.57,626.91ZM925.75,635a8.13,8.13,0,1,0-7.87-8.13A7.75,7.75,0,0,0,925.75,635Z"/><path d="M938.06,631.93l2-.58a4.67,4.67,0,0,0,4.75,3.8c2.12,0,4.25-1.06,4.25-3.53,0-2-1.37-2.92-4-4l-1.52-.6c-3.27-1.33-4.6-3.23-4.6-5.4,0-2.92,2.47-4.94,5.74-4.94a5.77,5.77,0,0,1,5.89,4.14l-1.86.61a3.94,3.94,0,0,0-3.95-2.77c-1.9,0-3.54,1-3.54,3,0,1.48.91,2.62,3.23,3.57l1.33.53c3.42,1.41,5.55,2.74,5.55,5.93,0,3.84-3.31,5.55-6.57,5.55C941.22,637.17,938.67,635.15,938.06,631.93Z"/><path d="M977,636.64,968.68,617h2.43l7.07,16.79L985.25,617h2.43l-8.43,19.76-3.2,7.22h-2.28Z"/><path d="M1.14,662.63H3.46v4.22h.11a8.57,8.57,0,0,1,7.9-4.6c4.94,0,9.81,3.53,9.81,10.26s-4.87,10.26-9.81,10.26a8.57,8.57,0,0,1-7.9-4.6H3.46v11.44H1.14Zm10,18c3.88,0,7.79-2.66,7.79-8.13s-3.91-8.13-7.79-8.13-7.79,2.7-7.79,8.13S7.29,680.64,11.17,680.64Z"/><path d="M25.12,662.63h2.32v4.6a6.42,6.42,0,0,1,6.42-5,3.85,3.85,0,0,1,1,.11v2.17a3.56,3.56,0,0,0-1-.11c-3.6,0-6.45,2.85-6.45,7.48v10.49H25.12Z"/><path d="M37.2,672.51a10.19,10.19,0,1,1,10.18,10.26A10,10,0,0,1,37.2,672.51Zm10.18,8.13a8.13,8.13,0,1,0-7.86-8.13A7.76,7.76,0,0,0,47.38,680.64Z"/><path d="M67.3,682.24l-8.36-19.61h2.43l7.07,16.79,7.06-16.79h2.43L69.5,682.39l-3.19,7.22H64Z"/><path d="M79.31,672.47c0-6.61,4.82-10.22,9.76-10.22s10.07,3.65,9.42,11.1h-17a7.71,7.71,0,0,0,8.09,7.37,8.13,8.13,0,0,0,6.27-2.66l1.22,1.25a10,10,0,0,1-7.75,3.46C84.09,682.77,79.31,679.12,79.31,672.47Zm17.09-1a7.08,7.08,0,0,0-7.33-7.18,7.46,7.46,0,0,0-7.56,7.18Z"/><path d="M101.42,672.55a10,10,0,0,1,10.14-10.3,9.42,9.42,0,0,1,8.44,4.86l-1.82,1a7.37,7.37,0,0,0-6.54-3.76,8.13,8.13,0,0,0,0,16.26,7.37,7.37,0,0,0,6.54-3.76l1.82,1a9.41,9.41,0,0,1-8.44,4.87A10,10,0,0,1,101.42,672.55Z"/><path d="M125.44,679V664.57h-2.55v-1.94h2.55v-5h2.31v5h3.84v1.94h-3.84v14a1.76,1.76,0,0,0,2,2,4.59,4.59,0,0,0,1.78-.38v1.9a4.09,4.09,0,0,1-2.27.57C127,682.62,125.44,681.51,125.44,679Z"/><path d="M134.48,672.51a10.19,10.19,0,1,1,10.18,10.26A10,10,0,0,1,134.48,672.51Zm10.18,8.13a8.13,8.13,0,1,0-7.86-8.13A7.76,7.76,0,0,0,144.66,680.64Z"/><path d="M157,677.52l2-.57a4.68,4.68,0,0,0,4.75,3.8c2.13,0,4.25-1.06,4.25-3.53,0-2-1.36-2.92-4-4l-1.52-.6c-3.26-1.33-4.59-3.23-4.59-5.4,0-2.92,2.47-4.94,5.73-4.94a5.76,5.76,0,0,1,5.89,4.14l-1.86.61a3.94,3.94,0,0,0-3.95-2.77c-1.9,0-3.53,1-3.53,3,0,1.48.91,2.62,3.23,3.57l1.33.53c3.41,1.41,5.54,2.74,5.54,5.93,0,3.84-3.3,5.55-6.57,5.55C160.13,682.77,157.58,680.75,157,677.52Z"/><path d="M214.8,682.39v-4.22h-.11a8.57,8.57,0,0,1-7.9,4.6c-4.94,0-9.81-3.54-9.81-10.26s4.87-10.26,9.81-10.26a8.57,8.57,0,0,1,7.9,4.6h.11V655.41h2.32v27Zm-7.71-1.75c3.87,0,7.79-2.7,7.79-8.13s-3.92-8.13-7.79-8.13-7.79,2.66-7.79,8.13S203.21,680.64,207.09,680.64Z"/><path d="M221,672.47c0-6.61,4.83-10.22,9.77-10.22s10.06,3.65,9.42,11.1h-17a7.72,7.72,0,0,0,8.1,7.37,8.16,8.16,0,0,0,6.27-2.66l1.21,1.25a9.93,9.93,0,0,1-7.75,3.46C225.75,682.77,221,679.12,221,672.47Zm17.1-1a7.08,7.08,0,0,0-7.33-7.18,7.47,7.47,0,0,0-7.57,7.18Z"/><path d="M269.4,679V664.57h-2.54v-1.94h2.54v-5h2.32v5h3.84v1.94h-3.84v14a1.76,1.76,0,0,0,2,2,4.63,4.63,0,0,0,1.79-.38v1.9a4.12,4.12,0,0,1-2.28.57C270.92,682.62,269.4,681.51,269.4,679Z"/><path d="M279.59,662.63h2.31v4.6a6.43,6.43,0,0,1,6.42-5,3.93,3.93,0,0,1,1,.11v2.17a3.56,3.56,0,0,0-1-.11c-3.61,0-6.46,2.85-6.46,7.48v10.49h-2.31Z"/><path d="M291.67,672.51c0-6.73,4.86-10.26,9.8-10.26a8.57,8.57,0,0,1,7.9,4.6h.12v-4.22h2.32v19.76h-2.32v-4.22h-.12a8.57,8.57,0,0,1-7.9,4.6C296.53,682.77,291.67,679.23,291.67,672.51Zm10.11,8.13c3.87,0,7.78-2.7,7.78-8.13s-3.91-8.13-7.78-8.13S294,667,294,672.51,297.9,680.64,301.78,680.64Z"/><path d="M316.6,662.63h2.32v3.46a7.3,7.3,0,0,1,6.83-3.84c4.22,0,7.83,2.62,7.83,8.51v11.63h-2.32V671c0-4.52-2.69-6.65-6.11-6.65s-6.23,2.13-6.23,6.65v11.36H316.6Z"/><path d="M337.23,677.52l2-.57a4.68,4.68,0,0,0,4.75,3.8c2.13,0,4.26-1.06,4.26-3.53,0-2-1.37-2.92-3.95-4l-1.52-.6c-3.27-1.33-4.6-3.23-4.6-5.4,0-2.92,2.47-4.94,5.74-4.94a5.78,5.78,0,0,1,5.89,4.14L348,667a4,4,0,0,0-4-2.77c-1.9,0-3.53,1-3.53,3,0,1.48.91,2.62,3.23,3.57l1.33.53c3.42,1.41,5.55,2.74,5.55,5.93,0,3.84-3.31,5.55-6.58,5.55C340.38,682.77,337.84,680.75,337.23,677.52Z"/><path d="M360.3,654.69a5.4,5.4,0,0,1,2.88.76v1.86a5.28,5.28,0,0,0-2.5-.61c-1.75,0-3.12.84-3.12,3.65v2.28h5.62v1.94h-5.62v17.82h-2.32V664.57h-2.16v-1.94h2.16v-2.58C355.24,655.72,358.09,654.69,360.3,654.69Z"/><path d="M365.31,672.51a10.19,10.19,0,1,1,10.19,10.26A10,10,0,0,1,365.31,672.51Zm10.19,8.13a8.13,8.13,0,1,0-7.87-8.13A7.75,7.75,0,0,0,375.5,680.64Z"/><path d="M389.52,662.63h2.32v4.6a6.42,6.42,0,0,1,6.42-5,3.85,3.85,0,0,1,1,.11v2.17a3.53,3.53,0,0,0-1-.11c-3.61,0-6.46,2.85-6.46,7.48v10.49h-2.32Z"/><path d="M416.42,670.91c0-3.95-1.75-6.53-5.36-6.53s-5.62,2.58-5.62,6.53v11.48h-2.32V662.63h2.32v3.23a7,7,0,0,1,12.65.72,7,7,0,0,1,6.8-4.33c4.11,0,7.15,2.58,7.15,8.44v11.7h-2.32V670.91c0-3.95-1.75-6.53-5.36-6.53s-5.62,2.58-5.62,6.53v11.48h-2.32Z"/><path d="M435.88,672.51c0-6.73,4.86-10.26,9.8-10.26a8.57,8.57,0,0,1,7.9,4.6h.12v-4.22H456v19.76H453.7v-4.22h-.12a8.57,8.57,0,0,1-7.9,4.6C440.74,682.77,435.88,679.23,435.88,672.51Zm10.1,8.13c3.88,0,7.79-2.7,7.79-8.13s-3.91-8.13-7.79-8.13-7.78,2.66-7.78,8.13S442.11,680.64,446,680.64Z"/><path d="M459.86,672.55A10,10,0,0,1,470,662.25a9.42,9.42,0,0,1,8.44,4.86l-1.83,1a7.35,7.35,0,0,0-6.53-3.76,8.13,8.13,0,0,0,0,16.26,7.35,7.35,0,0,0,6.53-3.76l1.83,1a9.41,9.41,0,0,1-8.44,4.87A10,10,0,0,1,459.86,672.55Z"/><path d="M482.28,655.41h2.31v2.24h-2.31Zm0,7.22h2.31v19.76h-2.31Z"/><path d="M488.43,672.51a10.19,10.19,0,1,1,10.18,10.26A10,10,0,0,1,488.43,672.51Zm10.18,8.13a8.13,8.13,0,1,0-7.86-8.13A7.76,7.76,0,0,0,498.61,680.64Zm2.4-26.37h2.13l-3.42,5.85h-2.09Z"/><path d="M512.64,662.63H515v3.46a7.3,7.3,0,0,1,6.83-3.84c4.22,0,7.83,2.62,7.83,8.51v11.63H527.3V671c0-4.52-2.69-6.65-6.11-6.65S515,666.51,515,671v11.36h-2.32Z"/><path d="M558.19,662.63h2.32v4.22h.11a8.58,8.58,0,0,1,7.91-4.6c4.93,0,9.8,3.53,9.8,10.26s-4.87,10.26-9.8,10.26a8.58,8.58,0,0,1-7.91-4.6h-.11v11.44h-2.32Zm10,18c3.88,0,7.79-2.66,7.79-8.13s-3.91-8.13-7.79-8.13-7.79,2.7-7.79,8.13S564.35,680.64,568.22,680.64Z"/><path d="M581.22,672.51c0-6.73,4.86-10.26,9.8-10.26a8.56,8.56,0,0,1,7.9,4.6H599v-4.22h2.32v19.76H599v-4.22h-.12a8.56,8.56,0,0,1-7.9,4.6C586.08,682.77,581.22,679.23,581.22,672.51Zm10.11,8.13c3.87,0,7.78-2.7,7.78-8.13s-3.91-8.13-7.78-8.13-7.79,2.66-7.79,8.13S587.45,680.64,591.33,680.64Z"/><path d="M606.15,662.63h2.31v4.6a6.44,6.44,0,0,1,6.43-5,3.85,3.85,0,0,1,1,.11v2.17a3.56,3.56,0,0,0-1-.11c-3.61,0-6.46,2.85-6.46,7.48v10.49h-2.31Z"/><path d="M618.23,672.51c0-6.73,4.86-10.26,9.8-10.26a8.58,8.58,0,0,1,7.91,4.6h.11v-4.22h2.32v19.76h-2.32v-4.22h-.11a8.58,8.58,0,0,1-7.91,4.6C623.09,682.77,618.23,679.23,618.23,672.51Zm10.11,8.13c3.87,0,7.79-2.7,7.79-8.13s-3.92-8.13-7.79-8.13-7.79,2.66-7.79,8.13S624.46,680.64,628.34,680.64Z"/><path d="M666.94,662.63h2.32v3.46a7.3,7.3,0,0,1,6.84-3.84c4.21,0,7.82,2.62,7.82,8.51v11.63H681.6V671c0-4.52-2.69-6.65-6.11-6.65s-6.23,2.13-6.23,6.65v11.36h-2.32Z"/><path d="M705.7,682.39h-2.32v-3.46a7.31,7.31,0,0,1-6.84,3.84c-4.22,0-7.83-2.62-7.83-8.51V662.63H691V674c0,4.52,2.7,6.65,6.12,6.65s6.23-2.13,6.23-6.65V662.63h2.32Z"/><path d="M709.54,672.47c0-6.61,4.82-10.22,9.76-10.22s10.07,3.65,9.42,11.1h-17a7.71,7.71,0,0,0,8.09,7.37,8.13,8.13,0,0,0,6.27-2.66l1.22,1.25a10,10,0,0,1-7.75,3.46C714.32,682.77,709.54,679.12,709.54,672.47Zm17.09-1a7.08,7.08,0,0,0-7.33-7.18,7.46,7.46,0,0,0-7.56,7.18Z"/><path d="M730.89,677.52l2-.57a4.67,4.67,0,0,0,4.74,3.8c2.13,0,4.26-1.06,4.26-3.53,0-2-1.37-2.92-3.95-4l-1.52-.6c-3.27-1.33-4.6-3.23-4.6-5.4,0-2.92,2.47-4.94,5.74-4.94a5.78,5.78,0,0,1,5.89,4.14l-1.86.61a4,4,0,0,0-4-2.77c-1.9,0-3.53,1-3.53,3,0,1.48.91,2.62,3.23,3.57l1.33.53c3.42,1.41,5.55,2.74,5.55,5.93,0,3.84-3.31,5.55-6.58,5.55C734,682.77,731.5,680.75,730.89,677.52Z"/><path d="M749.28,679V664.57h-2.54v-1.94h2.54v-5h2.32v5h3.84v1.94H751.6v14a1.76,1.76,0,0,0,2,2,4.62,4.62,0,0,0,1.78-.38v1.9a4.12,4.12,0,0,1-2.28.57C750.8,682.62,749.28,681.51,749.28,679Z"/><path d="M759.47,662.63h2.32v4.6a6.42,6.42,0,0,1,6.42-5,3.85,3.85,0,0,1,1,.11v2.17a3.56,3.56,0,0,0-1-.11c-3.61,0-6.45,2.85-6.45,7.48v10.49h-2.32Z"/><path d="M771.55,672.51a10.19,10.19,0,1,1,10.18,10.26A10,10,0,0,1,771.55,672.51Zm10.18,8.13a8.13,8.13,0,1,0-7.86-8.13A7.76,7.76,0,0,0,781.73,680.64Z"/><path d="M832.84,670.91c0-3.95-1.75-6.53-5.36-6.53s-5.63,2.58-5.63,6.53v11.48h-2.31V662.63h2.31v3.23a7.05,7.05,0,0,1,12.66.72,7,7,0,0,1,6.8-4.33c4.1,0,7.14,2.58,7.14,8.44v11.7h-2.32V670.91c0-3.95-1.74-6.53-5.35-6.53s-5.63,2.58-5.63,6.53v11.48h-2.31Z"/><path d="M870.23,682.39h-2.32v-3.46a7.31,7.31,0,0,1-6.84,3.84c-4.22,0-7.83-2.62-7.83-8.51V662.63h2.32V674c0,4.52,2.7,6.65,6.12,6.65s6.23-2.13,6.23-6.65V662.63h2.32Z"/><path d="M875,662.63h2.31v3.46a7.32,7.32,0,0,1,6.84-3.84c4.22,0,7.83,2.62,7.83,8.51v11.63h-2.32V671c0-4.52-2.69-6.65-6.11-6.65s-6.24,2.13-6.24,6.65v11.36H875Z"/><path d="M896.79,655.41h2.32v2.24h-2.32Zm0,7.22h2.32v19.76h-2.32Z"/><path d="M903,672.55a10,10,0,0,1,10.14-10.3,9.42,9.42,0,0,1,8.44,4.86l-1.83,1a7.35,7.35,0,0,0-6.53-3.76,8.13,8.13,0,0,0,0,16.26,7.35,7.35,0,0,0,6.53-3.76l1.83,1a9.41,9.41,0,0,1-8.44,4.87A10,10,0,0,1,903,672.55Z"/><path d="M925.37,655.41h2.31v2.24h-2.31Zm0,7.22h2.31v19.76h-2.31Z"/><path d="M932.47,662.63h2.32v4.22h.11a8.58,8.58,0,0,1,7.91-4.6c4.94,0,9.8,3.53,9.8,10.26s-4.86,10.26-9.8,10.26a8.58,8.58,0,0,1-7.91-4.6h-.11v11.44h-2.32Zm10,18c3.88,0,7.79-2.66,7.79-8.13s-3.91-8.13-7.79-8.13-7.79,2.7-7.79,8.13S938.63,680.64,942.5,680.64Z"/><path d="M956.45,655.41h2.32v2.24h-2.32Zm0,7.22h2.32v19.76h-2.32Z"/><path d="M962.61,672.51a10.18,10.18,0,1,1,10.18,10.26A10,10,0,0,1,962.61,672.51Zm10.18,8.13a8.13,8.13,0,1,0-7.87-8.13A7.75,7.75,0,0,0,972.79,680.64Z"/><path d="M984.76,681.32a1.45,1.45,0,1,1,1.44,1.45A1.4,1.4,0,0,1,984.76,681.32Z"/><path class="cls-3" d="M124.37,45.54A284.25,284.25,0,0,1,101.79,68a2.25,2.25,0,1,1-3-3.4A278.74,278.74,0,0,0,121,42.51c13.32-15,19.42-26.5,17.2-32.39-1.44-3.79-6.75-5.68-15.78-5.61-17.71.15-39.62,10.37-60.09,28C43.81,48.55,30.88,67,29.43,79.6c-.84,7.26,2.24,11.63,9.42,13.38,7.67,1.86,15.77,3.41,23.6,4.9,23.63,4.5,44,8.39,48.1,19.62,2,5.39-.08,11.64-6.22,19.12C96,146.8,79.88,156.11,60.2,162.17c-4.16,1.28-8.32,2.36-12.37,3.24-13.52,2.91-25.94,3.5-34.11,1.45-7.87-2-10.23-6-10.83-9-1.6-8.06,7.28-19.34,26.39-33.5A2.26,2.26,0,1,1,32,128C8,145.69,6.76,154.15,7.31,157c.51,2.53,3,4.39,7.5,5.51,19.47,4.89,68.36-7.22,86-28.73,5-6,6.81-11,5.47-14.71-3.19-8.82-23.36-12.66-44.7-16.73-7.89-1.5-16-3.06-23.83-5C28.41,95.08,23.85,88.59,25,79.09c1.58-13.65,15.1-33.25,34.45-49.95,21.27-18.37,44.24-29,63-29.14,11.11-.09,17.85,2.78,20,8.53C145.41,16.39,139.5,28.5,124.37,45.54Z"/><path class="cls-3" d="M191.38,63.59c-6.9,7.33-14.12,10.5-21.46,9.44s-13.41-6.27-17.61-11.23c.05,7.25-2.24,17.42-11.38,29.51-3.34,4.41-6.24,6.86-8.81,7.41a4.92,4.92,0,0,1-2.09,0c-1.16-.25-3.23-1.2-4.07-4.79-2.27-9.77,5.28-32.85,20.36-44.71a2.23,2.23,0,0,1,1.88-.43,2.33,2.33,0,0,1,.82.36,2.2,2.2,0,0,1,.63.69h0l0,0a3.63,3.63,0,0,1,.21.4c1.21,2.23,9.38,16.64,20.7,18.27,5.8.84,11.69-1.87,17.51-8.06a2.26,2.26,0,0,1,3.29,3.09ZM146.8,54.75c-12.15,11.14-17.26,29.14-16.66,36.7.17,2.09.71,2.8.84,2.88s1.89.15,6.35-5.74C149.85,72,148.36,59.85,146.8,54.75Z"/><path class="cls-3" d="M249.06,50.52c-7.41,7.82-14.69,15.17-21.73,22.28-4.54,4.58-8.92,9-13.08,13.29a355.42,355.42,0,0,1-17.17,46.15c-4.44,9.86-8.38,17.38-11.73,22.35-3.1,4.6-5.67,7-8,7.53l-.63.09a4.21,4.21,0,0,1-3.91-2.1c-3.72-5.88.24-26.62,7.57-39.62C186.82,109,197.43,97,210.15,83.85a245.31,245.31,0,0,0,8.14-39.4C209.1,59.9,198.6,74.79,191.55,76.31a4.5,4.5,0,0,1-2.71-.17c-2-.81-4-3.29-2.18-10.5a231.79,231.79,0,0,1,9.08-27.15,2.25,2.25,0,1,1,4.16,1.72A231.76,231.76,0,0,0,191,66.76c-.79,3.08-.61,4.64-.41,5.16h0c1.19-.26,9.08-3.3,28.71-38.27a2.25,2.25,0,0,1,2.54-1.07,2.23,2.23,0,0,1,1.68,2.18c0,1-.14,16.47-6.82,42.35l7.4-7.48c7-7.09,14.29-14.43,21.66-22.21a2.26,2.26,0,0,1,3.28,3.1ZM207.22,93.46c-9.73,10.42-17.77,20.06-22.94,29.24a73.71,73.71,0,0,0-7.59,22c-1.43,8-.76,12-.14,13,1-.38,5.66-3.37,16.41-27.27A352.06,352.06,0,0,0,207.22,93.46Z"/></g></g></svg>