<svg xmlns="http://www.w3.org/2000/svg" viewBox="0 0 447 515"><defs><style>.cls-1{fill:#fff;}.cls-2{fill:#f47400;}</style></defs><g id="Capa_2" data-name="Capa 2"><g id="Capa_1-2" data-name="Capa 1"><rect class="cls-1" width="447" height="515"/><path class="cls-2" d="M269.94,285.7c-6.13-1.79-9.12-6.49-11.68-11.83-4.37-9.12-8.95-18.13-13.55-27.14a6.55,6.55,0,0,0-2.65-2.67c-7.42-3.82-14.93-7.47-22.37-11.26a3.34,3.34,0,0,0-3.45,0c-9.14,4.64-18.34,9.16-27.49,13.79-5.83,2.95-11.34,2.62-16.85-.89-9.33-5.95-18.79-11.69-28.13-17.64a14.76,14.76,0,1,1,15.49-25.12c6.89,4.19,13.71,8.49,20.51,12.83a3.44,3.44,0,0,0,4.16.19c2.19-1.31,4.55-2.33,6.9-3.51a3.38,3.38,0,0,0-.16-.89c-3.26-6.56-6.47-13.15-9.86-19.64-.68-1.29-2.35-2-3.12-3.3-3.93-6.43-11.34-7.34-17.07-10.88-.47-.29-1.53.09-2.19.42-6.45,3.17-12.89,6.34-19.27,9.62a12.34,12.34,0,0,1-13.12-.58c-6.93-4.4-13.93-8.68-20.84-13.12a11.69,11.69,0,0,1,7-21.58,15,15,0,0,1,5.94,2c4.76,2.75,9.38,5.74,14,8.71a2.8,2.8,0,0,0,3.2.19c5-2.59,10.08-5.06,15.1-7.62a5.47,5.47,0,0,0,2-1.6c4-5.89,7.92-11.82,11.86-17.74a4.75,4.75,0,0,0,.27-.88c-2.52,0-4.9-.08-7.28.06-.61,0-1.25.68-1.75,1.17-2.87,2.83-5.68,5.72-8.56,8.55-5.09,5-12.37,5.1-17.11.29s-4.46-11.93.47-16.95c4.27-4.35,8.62-8.61,12.91-12.93a12.54,12.54,0,0,1,9.28-3.82H175.4a12.18,12.18,0,0,1,11.12,6.22c5.26,8.64,10.62,17.23,15.87,25.87a2.64,2.64,0,0,0,2.78,1.4c12.17-.1,24.35-.23,36.52,0,5.12.1,8.79,3.21,11.44,7.54,7.35,12,14.82,23.93,22,36,1.32,2.2,2.56,2.49,4.86,2,8-1.74,16.07-3.3,24.13-4.82a14.62,14.62,0,0,1,17,11.13c1.78,7.78-2.73,15.83-10.47,17.55-13,2.88-26.11,5.41-39.22,7.82-2.47.46-5.17-.35-7.63-.57,3.95,3,5.52,7.85,7.78,12.29C276.43,243.87,281,253.58,286,263c5.35,10-.53,20.15-8.78,22.11-.2,0-.37.22-.92.58h39.56c.66,0,1.32,0,2,0a3.63,3.63,0,0,1,0,7.25c-.58,0-1.17,0-1.76,0H197.43a18.7,18.7,0,0,1-2-.05,3.62,3.62,0,0,1,.12-7.22c.8-.07,1.61,0,2.41,0ZM223.52,152.58H207.68a7.84,7.84,0,0,0-5.87,2c-6.29,6.27-12.58,12.52-18.81,18.84a6.85,6.85,0,0,0-1.57,7.36c1.77,5.37,8.24,6.71,12.5,2.55q7.08-6.93,14-14a6.15,6.15,0,0,1,4.87-2c6.6.08,13.21,0,19.81,0,1.85,0,3.56.17,4.53,2s.31,3.49-.78,5.11c-7.42,11.08-14.79,22.21-22.26,33.27a8.86,8.86,0,0,1-3.2,2.85c-8.8,4.51-17.68,8.85-26.49,13.35a5.4,5.4,0,0,1-5.94-.31c-7.41-4.73-14.85-9.43-22.38-14a10.79,10.79,0,0,0-5.34-1.53,7,7,0,0,0-6.47,5.39,7.38,7.38,0,0,0,3.51,8.32c9.3,5.86,18.68,11.59,27.93,17.53a9.2,9.2,0,0,0,10.1.43c9.63-5,19.38-9.7,29-14.64a6.14,6.14,0,0,1,6.2,0c8.2,4.22,16.45,8.37,24.76,12.37a10.88,10.88,0,0,1,5.4,5.4c5,10.28,10.16,20.48,15.3,30.69,1.69,3.37,4.79,5.05,8,4.47,5.16-.92,7.64-6.05,5.19-11-5.79-11.68-11.7-23.31-17.45-35a11.67,11.67,0,0,0-5.59-5.61c-7.7-3.76-15.34-7.63-23-11.47-3.64-1.83-4.15-3.64-2-7q5.6-8.44,11.21-16.85c2.59-3.89,5.28-3.85,7.71.1,4.12,6.67,8.21,13.37,12.35,20,2,3.29,4.79,4.6,8.36,3.89q18-3.55,36-7.24c4.79-1,7.39-4.63,6.45-8.82-1-4.41-4.72-6.57-9.61-5.58q-13.46,2.72-26.93,5.4c-3.47.69-4.29.32-6.14-2.69C263,183.19,254.93,170.1,246.92,157a8.34,8.34,0,0,0-7.78-4.39C233.94,152.62,228.73,152.58,223.52,152.58ZM177.4,168c-2.06-1-4.27-2.12-6.47-3.24-3.08-1.57-3.63-3.55-1.75-6.42q4-6.17,8.13-12.28c2.41-3.6,5.17-3.53,7.48.18l5.52,9,6.4-6.34c-5.57-9.05-11.2-18.23-16.86-27.39a4.61,4.61,0,0,0-4.33-2.09c-7.62,0-15.25-.09-22.87.1a7.3,7.3,0,0,0-4.42,1.87c-4.23,3.94-8.25,8.12-12.33,12.23-2.28,2.29-2.46,4.89-.54,6.77s4.57,1.58,6.81-.64c3.28-3.25,6.44-6.63,9.84-9.75a6.86,6.86,0,0,1,4-1.7c4.9-.2,9.82-.05,14.73-.1,1.73,0,3.22.32,4.11,1.95s.42,3.23-.58,4.73c-5.43,8.1-10.8,16.23-16.28,24.29a8.13,8.13,0,0,1-2.91,2.55c-6.17,3.19-12.46,6.18-18.62,9.42a5.58,5.58,0,0,1-6.31-.33c-5.28-3.44-10.64-6.75-16-10.05-2.75-1.69-5.73-.78-6.76,1.94-.81,2.12-.05,4.1,2.29,5.58,6.81,4.29,13.66,8.54,20.48,12.84a5.21,5.21,0,0,0,5.59.14c6.66-3.37,13.43-6.55,20-10.09,3-1.61,5.46-1.75,8.38,0s6.33,3.21,9.28,4.67Zm49.82,6.86c-4.89,0-9.32,0-13.75,0a2.31,2.31,0,0,0-1.27.73c-2.66,2.62-5.32,5.24-7.91,7.92a1.86,1.86,0,0,0-.38,1.64c2.23,4.63,4.56,9.22,7,14.13Zm-21.67,30.24-7.49-14.94-8.1,3.41L197.69,209Zm54.34,14.81c-4.23-6.63-8.69-13.63-13.27-20.83l-7.1,10.65ZM180.9,154l-3.69,5.58a45.64,45.64,0,0,1,4.16,2.12c1.68,1.1,2.79.76,3.64-1.07Z"/><path class="cls-2" d="M299.16,143.52A20.29,20.29,0,1,1,278.89,123,20.33,20.33,0,0,1,299.16,143.52ZM266,143.36a12.89,12.89,0,1,0,13-13A12.94,12.94,0,0,0,266,143.36Z"/><path class="cls-2" d="M192.11,111.88a14.76,14.76,0,0,1,29.51.11,14.76,14.76,0,1,1-29.51-.11Zm22.08,0a7.34,7.34,0,1,0-7.31,7.49A7.37,7.37,0,0,0,214.19,111.85Z"/><path class="cls-2" d="M177.2,293c-1.32,0-2.64.09-3.95,0a3.52,3.52,0,0,1-3.3-3.69,3.44,3.44,0,0,1,3.27-3.48c2.7-.11,5.42-.11,8.12,0a3.46,3.46,0,0,1,3.31,3.46,3.5,3.5,0,0,1-3.28,3.7c-1.38.12-2.78,0-4.17,0Z"/><path d="M97.24,339.85h16.45c12.54,0,21.95,9.35,21.95,22.72s-9.41,22.72-21.95,22.72H97.24ZM113.37,377c8.64,0,13.12-5.88,13.12-14.46s-4.48-14.46-13.12-14.46H106V377Z"/><path d="M139.23,368.65c0-11.2,8.32-17.28,16.83-17.28s18,5.95,16.19,20.61h-24.9c1.22,4.54,5.19,6.91,10.18,6.91a12.56,12.56,0,0,0,8.57-3L170,380c-2.75,3.46-7.55,5.89-13.44,5.89C147.42,385.93,139.23,379.72,139.23,368.65Zm25.4-2.94c-.51-4.74-4.48-7.11-8.51-7.11a8.8,8.8,0,0,0-8.89,7.11Z"/><path d="M176.73,352h8.58v4.48h.19c.83-1.85,4.67-5.12,10.62-5.12,7.74,0,16,5.76,16,17.28s-8.26,17.28-16,17.28c-6,0-9.79-3.26-10.62-5.12h-.19v16.64h-8.58Zm17.66,26.24c4.8,0,9.28-3.39,9.28-9.6s-4.48-9.6-9.28-9.6-9.28,3.33-9.28,9.6S189.59,378.25,194.39,378.25Z"/><path d="M215.45,368.65c0-11.26,8.83-17.28,17.53-17.28s17.54,6,17.54,17.28-8.9,17.28-17.54,17.28S215.45,379.91,215.45,368.65ZM233,378.19c4.8,0,9-3.59,9-9.54s-4.23-9.53-9-9.53-9.08,3.58-9.08,9.53S228.19,378.19,233,378.19Z"/><path d="M255.45,352H264v8.64c1.16-5.12,4.42-9.28,10.44-9.28a9.07,9.07,0,0,1,2.24.26v8.19a12.35,12.35,0,0,0-2.18-.19c-6.46,0-10.5,4.48-10.5,11.13v14.53h-8.57Z"/><path d="M284.7,376.07V358.86H280V352h4.74V343.5h8.64V352h6.84v6.85h-6.84v15.81c0,1.72,1,3.39,3.77,3.39a11,11,0,0,0,3.14-.51v6.59c-1.28,1.15-3.71,1.53-5.83,1.53C288.79,385.67,284.7,382.92,284.7,376.07Z"/><path d="M303.51,368.65c0-11.2,8.32-17.28,16.83-17.28s18.05,5.95,16.19,20.61H311.64c1.22,4.54,5.18,6.91,10.18,6.91a12.56,12.56,0,0,0,8.57-3l3.9,4.16c-2.75,3.46-7.55,5.89-13.43,5.89C311.7,385.93,303.51,379.72,303.51,368.65Zm25.41-2.94c-.51-4.74-4.48-7.11-8.51-7.11a8.82,8.82,0,0,0-8.9,7.11Z"/></g></g></svg>