<svg xmlns="http://www.w3.org/2000/svg" viewBox="0 0 447 515"><defs><style>.cls-1{fill:#fff;}.cls-2{fill:#f47400;}</style></defs><g id="Capa_2" data-name="Capa 2"><g id="Capa_1-2" data-name="Capa 1"><rect class="cls-1" width="447" height="515"/><path class="cls-2" d="M329,135.38v76.05a42.7,42.7,0,0,1-1.93,5.65c-3.65,7.32-9.78,10.77-17.84,10.83-9,.08-18.1,0-27.15,0h-2.34c.28.9.45,1.53.68,2.14q8.08,22.05,16.2,44.1c2,5.53,4.12,11,6.08,16.59a6,6,0,0,1-3.17,7.74c-3.11,1.36-6.19.16-7.88-3.1a16.5,16.5,0,0,1-.84-2C283,272.19,275.22,251,267.53,229.83c-.63-1.75-1.56-1.88-3.08-2s-2.15.64-2.64,2q-11.46,31.73-23,63.41a17.41,17.41,0,0,1-1.34,2.91,5.38,5.38,0,0,1-5.38,2.82c-2.53-.21-4.65-1.52-5.18-4.05a10.56,10.56,0,0,1,.46-5.42c7.08-19.71,14.28-39.39,21.44-59.07.28-.78.52-1.58.83-2.54-7.05,0-13.82,0-20.59.06a2.8,2.8,0,0,0-1.79,1.22c-4.69,6.66-12.51,9.22-20,6-6.2-2.68-12.15-5.92-18.22-8.9-.63-.31-1.29-.56-2.2-1v2.89q0,31.78,0,63.56c0,5-2.31,7.28-7.25,7.29q-18.21,0-36.4,0c-4.93,0-7.23-2.35-7.23-7.32,0-10.12,0-20.25,0-30.37,0-1.54-.33-2.37-1.88-3a14.74,14.74,0,0,1-7.57-6.35,72,72,0,0,1-3.49-8.44V219.08a14.28,14.28,0,0,0,.33-1.55,35.51,35.51,0,0,1,9.22-20.75c2.88-3.11,6.29-5.72,9.44-8.55a28.72,28.72,0,1,1,40.22-1.45l18.4,9.13v-2.5c0-18.24,0-36.48,0-54.72,0-11.4,7.9-19.72,19.11-19.77,30-.12,60.07-.07,90.11,0a18.69,18.69,0,0,1,15,7.22C327.11,128.86,328.08,132.09,329,135.38Zm-99.58,80.4c.69,0,1.15.07,1.61.07q39.12,0,78.25,0c4.92,0,7.64-2.79,7.65-7.8V139c0-5.49-2.64-8.09-8.18-8.09H220.84c-5.63,0-8.16,2.57-8.16,8.27q0,19.62,0,39.24c0,7.24,0,14.48,0,21.73,0,.66.12,1.69.54,1.93,2.42,1.36,4.94,2.54,7.51,3.82,3.18-6.34,6.23-12.45,9.29-18.55,1.23-2.46,2.39-4.95,3.74-7.34a5.59,5.59,0,0,1,6.15-2.83,5.16,5.16,0,0,1,4.7,4.32,9.35,9.35,0,0,1-.84,5.17c-4.39,9.1-9,18.12-13.49,27.16C230,214.45,229.76,215.05,229.42,215.78ZM174.72,287v-2.81q0-33.3,0-66.58a23.17,23.17,0,0,1,.14-3,5.65,5.65,0,0,1,5.39-5.05,9.87,9.87,0,0,1,4.19,1.08c8.77,4.3,17.48,8.75,26.27,13a7.36,7.36,0,0,0,4.39.51,3.74,3.74,0,0,0,2.78-3.58c.14-2-1.07-3.05-2.68-3.85-10.91-5.42-21.94-10.63-32.69-16.35a41.06,41.06,0,0,0-22.05-4.68A26.29,26.29,0,0,0,135.1,221.5c-.12,6.5-.06,13,0,19.51,0,4,2.48,6.64,6.46,7.1,4.52.53,6.42,2.6,6.42,7.11q0,14.78,0,29.57c0,.7.06,1.41.09,2.16Zm3.11-119.18c.75-8.9-6.33-16.86-15.94-17.34a16.52,16.52,0,1,0,15.94,17.34Z"/><path class="cls-2" d="M264.83,156.76c-10.72,0-21.44,0-32.17,0-4.5,0-7.38-4.13-5.8-8.13a5.61,5.61,0,0,1,4-3.61,12.33,12.33,0,0,1,2.78-.3q31.17,0,62.33,0a12.32,12.32,0,0,1,1.61.07,6.1,6.1,0,0,1,5.53,6.3,6,6,0,0,1-6.13,5.68c-9.45.05-18.9,0-28.35,0h-3.83Z"/><path class="cls-2" d="M280.91,167.37c5.29,0,10.58-.08,15.86,0,4.56.1,7.36,3.81,6.05,7.83a5.73,5.73,0,0,1-4.57,4.05l-.2,0c-11.37,0-22.75.09-34.12,0-2.69,0-4.64-2.26-5-4.92-.6-3.87,2.07-6.88,6.36-7C270.47,167.31,275.69,167.37,280.91,167.37Z"/><path class="cls-2" d="M280.9,190c5.16,0,10.31,0,15.47,0,4.09,0,6.82,2.48,6.78,6.05s-2.78,6-6.69,6q-15.57,0-31.13,0c-3.56,0-6-2-6.44-5.11a5.82,5.82,0,0,1,4-6.6,9.52,9.52,0,0,1,2.77-.33C270.73,190,275.82,190,280.9,190Z"/><path d="M75.65,347.19h25.72v8.07h-17v10.56H98.68v7.93H84.41v10.82H102v8.06H75.65Z"/><path d="M132,392.63v-4.48h-.19c-.84,1.86-4.67,5.12-10.63,5.12-7.74,0-16-5.76-16-17.28s8.26-17.28,16-17.28c6,0,9.79,3.27,10.63,5.12H132V347.19h8.57v45.44Zm-9.09-7c4.8,0,9.28-3.33,9.28-9.6s-4.48-9.6-9.28-9.6-9.28,3.39-9.28,9.6S118.14,385.59,122.94,385.59Z"/><path d="M178.49,392.63h-8.57v-4.54c-1.86,2.94-5.19,5.18-10.18,5.18-6.85,0-12.61-4.22-12.61-14.33V359.35h8.58v18.18c0,4.86,2.62,8.06,7.1,8.06s7.11-3.2,7.11-8.06V359.35h8.57Z"/><path d="M183.42,376c0-11.26,8.77-17.28,17.54-17.28a16.13,16.13,0,0,1,14.33,8.19l-6.27,4a9.51,9.51,0,0,0-8-4.48,9.54,9.54,0,0,0,0,19.07,9.53,9.53,0,0,0,8-4.48l6.27,4A16.25,16.25,0,0,1,201,393.27C192.19,393.27,183.42,387.25,183.42,376Z"/><path d="M217.85,376c0-11.52,8.26-17.28,16-17.28,6,0,9.79,3.27,10.63,5.12h.19v-4.48h8.57v33.28h-8.57v-4.48h-.19c-.84,1.86-4.68,5.12-10.63,5.12C226.11,393.27,217.85,387.51,217.85,376Zm17.73,9.6c4.8,0,9.28-3.33,9.28-9.6s-4.48-9.6-9.28-9.6-9.28,3.39-9.28,9.6S230.78,385.59,235.58,385.59Z"/><path d="M258.17,376c0-11.26,8.77-17.28,17.54-17.28A16.13,16.13,0,0,1,290,366.9l-6.27,4a9.51,9.51,0,0,0-8-4.48,9.54,9.54,0,0,0,0,19.07,9.53,9.53,0,0,0,8-4.48l6.27,4a16.25,16.25,0,0,1-14.33,8.19C266.94,393.27,258.17,387.25,258.17,376Z"/><path d="M295,347.19h8.58v7.56H295Zm0,12.16h8.58v33.28H295Z"/><path d="M308.48,376c0-11.26,8.83-17.28,17.53-17.28s17.53,6,17.53,17.28-8.89,17.28-17.53,17.28S308.48,387.25,308.48,376ZM326,385.53c4.8,0,9-3.59,9-9.54s-4.22-9.53-9-9.53-9.09,3.58-9.09,9.53S321.21,385.53,326,385.53Zm3.33-40.26h6.91l-6.59,10.05h-6.72Z"/><path d="M348.47,359.35h8.58v4.55c1.86-2.95,5.18-5.19,10.18-5.19,6.84,0,12.6,4.23,12.6,14.34v19.58h-8.57V374.46c0-4.87-2.63-8.07-7.11-8.07s-7.1,3.2-7.1,8.07v18.17h-8.58Z"/></g></g></svg>