<svg xmlns="http://www.w3.org/2000/svg" viewBox="0 0 447 515"><defs><style>.cls-1{fill:#fff;}.cls-2{fill:#f47400;}</style></defs><g id="Capa_2" data-name="Capa 2"><g id="Capa_1-2" data-name="Capa 1"><rect class="cls-1" width="447" height="515"/><path class="cls-2" d="M313,202.72c-1.33,5.06-2.7,10.11-4,15.19-3,11.86-5.76,23.77-8.87,35.6-4,15.39-12.89,27.61-25.48,37.14-5.84,4.42-11.88,8.57-17.87,12.77a2.83,2.83,0,0,0-1.4,2.79c.11,1.79.06,3.59,0,5.39a8,8,0,0,1-7.61,8c-.59,0-1.19,0-1.79,0H175.5c-6.53,0-9.81-3-9.43-9.51.24-4.17-1-6.76-4.59-9a174.66,174.66,0,0,1-16.55-11.83c-13.09-10.49-21.27-24-25-40.44-3.38-15-7.33-29.83-11-44.73-1.67-6.69,1.3-13.05,7.37-15.71a13.21,13.21,0,0,1,16.75,5.2,23.28,23.28,0,0,1,2.08,4.29c3.52,9.33,7,18.68,10.46,28,.23.61.5,1.2.8,1.91,5.71-2.88,10.77-1.71,15.82,1.65,9.58,6.38,19.35,12.48,29,18.71a49.89,49.89,0,0,1,18.64,21.12c.21.45.46.88.85,1.61.56-1.16,1-2,1.41-2.9A49.83,49.83,0,0,1,230,248.25c10.06-6.48,20.19-12.88,30.21-19.43,4.72-3.09,9.48-3.57,14.75-1,.28-.65.58-1.28.83-1.93q5.37-14.38,10.74-28.76c1.79-4.76,4.93-8.22,10-9.51a13.31,13.31,0,0,1,15.89,9c.17.56.37,1.12.56,1.68ZM206.69,311.51c0-6.84,0-13.49,0-20.15a44,44,0,0,0-2.63-15.25,40.57,40.57,0,0,0-16.44-20.75c-10.42-6.79-20.91-13.47-31.39-20.17-2.77-1.77-5.77-1.29-7.44,1.08s-1.09,5.27,1.5,7.32l8.46,6.68c3.4,2.68,6.83,5.32,10.18,8a4,4,0,1,1-4.88,6.29c-.43-.3-.84-.65-1.26-1-6-4.75-12-9.52-18-14.25-4.27-3.36-5.49-7.77-4.71-13a6,6,0,0,0-.19-2.87Q133.8,217,127.58,200.48a13.49,13.49,0,0,0-1.1-2.34c-1.64-2.67-4.18-3.58-6.8-2.51s-3.74,3.49-3,6.58c3.84,15.48,7.83,30.92,11.5,46.45s12.29,27.79,25.27,37c5.86,4.17,11.64,8.43,17.55,12.52a6,6,0,0,1,3,5.84c-.16,2.44,0,4.89,0,7.47Zm40.75,0c0-2.84.09-5.43,0-8a5.36,5.36,0,0,1,2.6-5c6.64-4.67,13.31-9.32,19.8-14.19,10.63-8,18.52-18.13,22-31,4.67-17.12,8.72-34.41,13-51.64a5,5,0,0,0-2.59-5.74,4.83,4.83,0,0,0-6.21.87,12.07,12.07,0,0,0-2.21,3.72q-6.22,16.41-12.27,32.89a6.58,6.58,0,0,0-.24,3.06c.75,5.2-.45,9.63-4.75,13-2.15,1.67-4.28,3.39-6.42,5.08-4.23,3.34-8.44,6.71-12.7,10a3.88,3.88,0,0,1-5,.16,3.66,3.66,0,0,1-1.32-4.45,6.24,6.24,0,0,1,2-2.41c6.14-4.91,12.33-9.74,18.48-14.63A5,5,0,0,0,273,236.9a5.06,5.06,0,0,0-5.9-2.6,8,8,0,0,0-2.13,1c-10.37,6.63-20.8,13.18-31.08,20-10.9,7.2-17.46,17.41-18.69,30.4-.8,8.39-.32,16.89-.4,25.34,0,.12.1.23.21.47Z"/><path class="cls-2" d="M241.9,207.13c0,5.64,0,11,0,16.29,0,5.84-3.12,8.93-9,8.94-1.33,0-2.66,0-4,0a4,4,0,0,1-.17-7.91c1.64-.14,3.3,0,5.06,0,0-.71.13-1.22.13-1.73,0-6.46,0-12.92,0-19.38,0-6.88-4.89-11.91-11.76-12-7.65-.11-15.32-.12-23,0a11.53,11.53,0,0,0-11.67,11.89c0,7,0,13.95,0,21.18,1.6,0,3,0,4.49,0,2.78.07,4.5,1.63,4.5,4s-1.73,3.92-4.52,4c-1.53,0-3.07,0-4.6,0a7.81,7.81,0,0,1-7.84-7.89c-.06-5,0-10,0-15v-2.34h-2.35c-6.73,0-13.46,0-20.18,0-5.61,0-9-3.35-9-8.91,0-6.72,0-13.45,0-20.18a19.6,19.6,0,0,1,13.53-19c.25-.09.48-.22.8-.37-7.34-10.08-8.07-20.28.13-30.08A21.44,21.44,0,0,1,187,122.44c11.41,4.64,15.72,13.59,14.48,25.71a23.63,23.63,0,0,1,18.66.08c-.89-6.06-.17-11.61,3-16.64a22.47,22.47,0,0,1,37.58-.89c4.83,6.91,6.4,18-1.67,27.9.73.32,1.43.61,2.12.92,7.72,3.47,11.94,9.44,12.22,17.87.24,7.05.08,14.12.05,21.18a8.19,8.19,0,0,1-8.56,8.55c-6.86,0-13.72,0-20.57,0ZM227.38,183.9c7.66,2.53,12.31,7.59,14.2,15.08H265.4c0-7.54.21-14.94-.06-22.31a11.2,11.2,0,0,0-10.87-10.58c-7-.24-14,0-21,0-.1,0-.2.15-.41.31A22.81,22.81,0,0,1,227.38,183.9Zm-39.07-17.78c-.76-.05-1.34-.11-1.92-.11-6.06,0-12.12,0-18.18,0-7.28,0-12.23,5-12.25,12.36,0,6.26,0,12.52,0,18.78V199h23.87c1.91-7.67,6.66-12.63,14.19-15.16A22.92,22.92,0,0,1,188.31,166.12ZM164.7,143.48A14.5,14.5,0,1,0,179.15,129,14.43,14.43,0,0,0,164.7,143.48Zm92,.12A14.5,14.5,0,1,0,242.16,158,14.5,14.5,0,0,0,256.7,143.6Zm-45.94,10.67a14.48,14.48,0,1,0,14.42,14.49A14.39,14.39,0,0,0,210.76,154.27Z"/><path class="cls-2" d="M210.77,232.34a3.92,3.92,0,0,1-4.05-4,4,4,0,1,1,8,.06A3.93,3.93,0,0,1,210.77,232.34Z"/><path d="M127.72,389l7.1-3.26c1.28,3.52,4.16,6.65,8.77,6.65,3.58,0,6.65-1.85,6.65-5.82,0-3.33-2-4.8-6.59-6.66l-2.88-1.08c-6.21-2.5-11.33-6-11.33-12.87,0-7.61,6.34-12.35,14-12.35a15.41,15.41,0,0,1,14.59,9.6l-6.53,3.65c-1.92-3.65-4.41-5.44-7.74-5.44s-5.7,1.6-5.7,4.61c0,2.36,1.35,4.22,6.34,6.14l3.07,1.22c7.94,3.2,11.91,6.78,11.91,13.24,0,9.22-8.07,13.7-15.68,13.7C135.78,400.37,129.32,395.7,127.72,389Z"/><path d="M162.66,383.09c0-11.26,8.83-17.28,17.53-17.28s17.54,6,17.54,17.28-8.9,17.28-17.54,17.28S162.66,394.35,162.66,383.09Zm17.53,9.53c4.8,0,9-3.58,9-9.53s-4.23-9.54-9-9.54-9.08,3.59-9.08,9.54S175.4,392.62,180.19,392.62Z"/><path d="M201.06,383.09c0-11.26,8.77-17.28,17.53-17.28A16.14,16.14,0,0,1,232.93,374l-6.27,4a9.55,9.55,0,0,0-8-4.48,9.54,9.54,0,0,0,0,19.07,9.54,9.54,0,0,0,8-4.47l6.27,4a16.28,16.28,0,0,1-14.34,8.19C209.83,400.37,201.06,394.35,201.06,383.09Z"/><path d="M237.86,354.29h8.57v7.55h-8.57Zm0,12.16h8.57v33.28h-8.57Z"/><path d="M251.36,383.09c0-11.52,8.26-17.28,16-17.28,5.95,0,9.79,3.27,10.62,5.12h.2v-4.48h8.57v33.28h-8.57v-4.48H278c-.83,1.85-4.67,5.12-10.62,5.12C259.62,400.37,251.36,394.61,251.36,383.09Zm17.73,9.6c4.8,0,9.28-3.33,9.28-9.6s-4.48-9.6-9.28-9.6-9.28,3.39-9.28,9.6S264.29,392.69,269.09,392.69Z"/><path d="M293.28,354.29h8.58v45.44h-8.58Z"/></g></g></svg>